M48
; DRILL file KiCad 10.0.3 date 2026-07-23T22:32:28
; FORMAT={-:-/ absolute / metric / decimal}
; #@! TF.CreationDate,2026-07-23T22:32:28-04:00
; #@! TF.GenerationSoftware,Kicad,Pcbnew,10.0.3
; #@! TF.FileFunction,Plated,1,2,PTH
FMAT,2
METRIC
; #@! TA.AperFunction,Plated,PTH,ViaDrill
T1C0.300
; #@! TA.AperFunction,Plated,PTH,ComponentDrill
T2C0.600
; #@! TA.AperFunction,Plated,PTH,ComponentDrill
T3C1.000
; #@! TA.AperFunction,Plated,PTH,ComponentDrill
T4C1.500
; #@! TA.AperFunction,Plated,PTH,ComponentDrill
T5C3.000
%
G90
G05
T1
X49.8Y-30.0
X50.9Y-45.9
X51.5Y-84.9
X52.8Y-62.0
X55.8Y-87.0
X56.4Y-60.7
X58.88Y-28.505
X59.5Y-74.3
X59.8Y-14.4
X59.8Y-80.9
X60.9Y-86.2
X61.7Y-47.3
X62.7Y-14.7
X63.023Y-22.423
X63.113Y-21.578
X63.8Y-64.88
X63.9Y-48.0
X64.1Y-125.3
X64.3Y-23.1
X64.475Y-63.966
X64.5Y-101.8
X65.4Y-13.3
X65.8Y-22.1
X66.3Y-102.4
X66.5Y-48.675
X66.5Y-87.2
X66.5Y-105.7
X66.6Y-45.8
X66.6Y-49.5
X66.6Y-67.6
X66.89Y-22.19
X67.0Y-51.8
X67.481Y-22.725
X67.7Y-49.4
X68.1Y-86.6
X68.125Y-51.864
X68.375Y-23.663
X68.55Y-20.4
X68.7Y-49.2
X68.912Y-24.3
X69.396Y-20.5
X69.449Y-24.837
X69.548Y-52.588
X69.6Y-49.7
X69.675Y-26.62
X70.1Y-27.7
X70.1Y-51.7
X70.2Y-64.6
X70.3Y-34.5
X70.4Y-28.5
X70.5Y-45.6
X70.6Y-82.0
X70.6Y-101.5
X70.8Y-29.225
X70.85Y-17.1
X71.45Y-24.2
X71.9Y-26.2
X72.028Y-29.465
X72.9Y-22.2
X73.792Y-17.773
X74.1Y-123.4
X74.4Y-20.1
X74.4Y-21.9
X74.4Y-26.6
X74.4Y-104.1
X74.7Y-66.2
X75.288Y-29.203
X75.6Y-13.2
X76.0Y-23.7
X76.4Y-21.898
X76.47Y-26.806
X76.76Y-19.76
X77.0Y-29.3
X77.7Y-16.0
X77.9Y-18.7
X78.2Y-123.6
X78.4Y-14.1
X78.5Y-12.3
X80.404Y-85.894
X80.905Y-85.207
X82.0Y-49.1
X82.2Y-9.5
X82.2Y-27.5
X82.2Y-88.4
X82.3Y-84.8
X82.3Y-86.975
X82.469Y-47.077
X82.8Y-68.5
X82.9Y-66.6
X83.5Y-102.4
X83.6Y-44.7
X83.6Y-64.3
X85.5Y-67.6
X85.5Y-87.2
X85.6Y-15.825
X85.6Y-48.3
X85.6Y-105.6
X88.9Y-83.8
X89.0Y-22.2
X89.5Y-85.9
X90.1Y-65.9
X90.7Y-47.5
X91.0Y-104.0
X91.8Y-16.3
X93.7Y-66.6
X93.8Y-104.6
X94.1Y-24.4
X94.5Y-9.4
X96.2Y-104.8
X96.3Y-66.8
X99.3Y-86.075
X99.5Y-25.1
X100.7Y-49.3
X100.7Y-85.1
X100.7Y-118.7
X101.077Y-46.825
X101.6Y-68.9
X102.5Y-66.6
X102.8Y-44.9
X103.1Y-68.7
X103.1Y-118.2
X104.5Y-67.6
X104.6Y-87.2
X104.6Y-105.6
X104.7Y-48.3
X107.4Y-113.2
X108.0Y-85.8
X110.1Y-47.2
X114.9Y-78.4
X115.3Y-85.8
X121.7Y-45.1
X123.6Y-48.3
X123.7Y-77.1
X127.5Y-85.8
T3
X50.0Y-8.46
X50.0Y-11.0
X50.0Y-13.54
X50.0Y-18.0
X50.0Y-20.54
X50.0Y-23.08
X50.0Y-25.62
X119.0Y-8.0
X119.0Y-22.5
X121.5Y-8.0
X124.0Y-8.0
X124.0Y-22.5
T5
X56.19Y-37.46
X56.19Y-56.51
X56.19Y-75.56
X56.19Y-94.61
X62.54Y-34.92
X62.54Y-53.97
X62.54Y-73.02
X62.54Y-92.07
X65.715Y-113.66
X72.065Y-111.12
X75.24Y-37.46
X75.24Y-56.51
X75.24Y-75.56
X75.24Y-94.61
X81.59Y-34.92
X81.59Y-53.97
X81.59Y-73.02
X81.59Y-92.07
X94.29Y-37.46
X94.29Y-56.51
X94.29Y-75.56
X94.29Y-94.61
X94.29Y-113.66
X100.64Y-34.92
X100.64Y-53.97
X100.64Y-73.02
X100.64Y-92.07
X100.64Y-111.12
X113.34Y-37.46
X113.34Y-66.035
X113.34Y-104.135
X119.69Y-34.92
X119.69Y-63.495
X119.69Y-101.595
T2
G00X84.18Y-7.9
M15
G01X84.18Y-7.3
M16
G05
G00X84.18Y-12.33
M15
G01X84.18Y-11.23
M16
G05
G00X92.82Y-7.9
M15
G01X92.82Y-7.3
M16
G05
G00X92.82Y-12.33
M15
G01X92.82Y-11.23
M16
G05
T4
G00X115.9Y-14.85
M15
G01X115.9Y-16.15
M16
G05
G00X127.1Y-14.85
M15
G01X127.1Y-16.15
M16
G05
M30
