  0
SECTION
  2
HEADER
  9
$ANGBASE
  50
0.0
  9
$ANGDIR
  70
1
  9
$MEASUREMENT
  70
1
  9
$INSUNITS
  70
4
  0
ENDSEC
  0
SECTION
  2
TABLES
  0
TABLE
  2
LTYPE
  70
4
  0
LTYPE
  5
40F
  2
CONTINUOUS
  70
0
  3
Solid line
  72
65
  73
0
  40
0.0
  0
LTYPE
  5
410
  2
DASHDOT
 70
0
  3
Dash Dot ____ _ ____ _
 72
65
 73
4
 40
2.0
 49
1.25
 49
-0.25
 49
0.25
 49
-0.25
  0
LTYPE
  5
411
  2
DASHED
 70
0
  3
Dashed __ __ __ __ __
 72
65
 73
2
 40
0.75
 49
0.5
 49
-0.25
  0
LTYPE
  5
43B
  2
DOTTED
 70
0
  3
Dotted .  .  .  .
 72
65
 73
2
 40
0.2
 49
0.0
 49
-0.2
  0
ENDTAB
  0
TABLE
  2
STYLE
  70
4
  0
STYLE
  2
KICAD
  70
0
  40
0
  41
1
  42
1
  50
0
  71
0
  3
isocp.shx
  0
STYLE
  2
KICADB
  70
0
  40
0
  41
1
  42
1
  50
0
  71
0
  3
isocp.shx
  0
STYLE
  2
KICADI
  70
0
  40
0
  41
1
  42
1
  50
15
  71
0
  3
isocp.shx
  0
STYLE
  2
KICADBI
  70
0
  40
0
  41
1
  42
1
  50
15
  71
0
  3
isocp.shx
  0
ENDTAB
  0
TABLE
  2
LAYER
  70
1
  0
LAYER
  2
Edge.Cuts
  70
0
  62
254
  420
13685453
  6
CONTINUOUS
  0
ENDTAB
  0
ENDSEC
  0
SECTION
  2
ENTITIES
0
ARC
8
Edge.Cuts
10
50.
20
-8.
40
3.
50
90.00000000
51
180.00000000
0
LINE
8
Edge.Cuts
6
CONTINUOUS
10
47.
20
-129.
11
47.
21
-8.
0
LINE
8
Edge.Cuts
6
CONTINUOUS
10
50.
20
-5.
11
127.
21
-5.
0
ARC
8
Edge.Cuts
10
50.
20
-129.
40
3.
50
-180.00000000
51
-90.00000000
0
ARC
8
Edge.Cuts
10
127.
20
-8.
40
3.
50
0.00000000
51
90.00000000
0
LINE
8
Edge.Cuts
6
CONTINUOUS
10
127.
20
-132.
11
50.
21
-132.
0
LINE
8
Edge.Cuts
6
CONTINUOUS
10
130.
20
-8.
11
130.
21
-129.
0
ARC
8
Edge.Cuts
10
127.
20
-129.
40
3.
50
-90.00000000
51
-0.00000000
0
LINE
8
Edge.Cuts
6
CONTINUOUS
10
96.4000009999999889
20
-64.8328410000000019
11
96.4000009999999889
21
-63.427156999999994
0
LINE
8
Edge.Cuts
6
CONTINUOUS
10
97.3055480000000017
20
-62.6299999999999955
11
98.8944529999999986
21
-62.6299999999999955
0
LINE
8
Edge.Cuts
6
CONTINUOUS
10
98.8944520000000011
20
-65.629998999999998
11
97.3055480000000017
21
-65.629998999999998
0
LINE
8
Edge.Cuts
6
CONTINUOUS
10
99.7999989999999997
20
-63.427156999999994
11
99.7999989999999997
21
-64.8328410000000019
0
ARC
8
Edge.Cuts
10
95.8999999999999915
20
-63.4270999999999958
40
0.4999760117215625
50
-0.00653171
51
25.70023661
0
ARC
8
Edge.Cuts
10
96.8010299999999972
20
-62.9933999999999941
40
0.4999993648365966
50
-300.29939530
51
-154.29367517
0
ARC
8
Edge.Cuts
10
95.8996399999999909
20
-64.8327599999999933
40
0.5003610067191487
50
-25.69659863
51
-0.00938973
0
ARC
8
Edge.Cuts
10
96.8010299999999972
20
-65.2665999999999968
40
0.4999960394813143
50
-205.70653133
51
-59.70037344
0
ARC
8
Edge.Cuts
10
97.3055499999999967
20
-66.1300099999999986
40
0.5000103584367028
50
90.00022918
51
120.29880049
0
ARC
8
Edge.Cuts
10
97.3055499999999967
20
-62.1299899999999994
40
0.5000090000089998
50
-120.29901505
51
-90.00034377
0
ARC
8
Edge.Cuts
10
98.894449999999992
20
-66.1300080000000037
40
0.5000090000039998
50
59.70098495
51
89.99977082
0
ARC
8
Edge.Cuts
10
98.894449999999992
20
-62.1299909999999969
40
0.500009136137531
50
-89.99965623
51
-59.70098495
0
ARC
8
Edge.Cuts
10
99.3989689999999939
20
-62.9934019999999961
40
0.4999998519649781
50
-25.70606862
51
120.29923855
0
ARC
8
Edge.Cuts
10
100.2999889999999965
20
-63.4271549999999991
40
0.499990000001
50
-205.70646243
51
-179.99988541
0
ARC
8
Edge.Cuts
10
99.3989699999999914
20
-65.2665980000000019
40
0.4999997985959594
50
-120.29939530
51
25.70642808
0
ARC
8
Edge.Cuts
10
100.2999889999999965
20
-64.8328429999999969
40
0.4999899543000839
50
-180.00022919
51
-154.29353757
0
LINE
8
Edge.Cuts
6
CONTINUOUS
10
77.3500009999999918
20
-64.8328410000000019
11
77.3500009999999918
21
-63.427156999999994
0
LINE
8
Edge.Cuts
6
CONTINUOUS
10
78.2555479999999903
20
-62.6299999999999955
11
79.8444530000000015
21
-62.6299999999999955
0
LINE
8
Edge.Cuts
6
CONTINUOUS
10
79.8444519999999898
20
-65.629998999999998
11
78.2555479999999903
21
-65.629998999999998
0
LINE
8
Edge.Cuts
6
CONTINUOUS
10
80.7499990000000025
20
-63.427156999999994
11
80.7499990000000025
21
-64.8328410000000019
0
ARC
8
Edge.Cuts
10
76.8499999999999943
20
-63.4270999999999958
40
0.4999760117215625
50
-0.00653171
51
25.70023661
0
ARC
8
Edge.Cuts
10
77.7510300000000001
20
-62.9933999999999941
40
0.4999993648365966
50
-300.29939530
51
-154.29367517
0
ARC
8
Edge.Cuts
10
76.8496399999999937
20
-64.8327599999999933
40
0.5003610067191487
50
-25.69659863
51
-0.00938973
0
ARC
8
Edge.Cuts
10
77.7510300000000001
20
-65.2665999999999968
40
0.4999960394813143
50
-205.70653133
51
-59.70037344
0
ARC
8
Edge.Cuts
10
78.2555499999999995
20
-66.1300099999999986
40
0.5000103584367028
50
90.00022918
51
120.29880049
0
ARC
8
Edge.Cuts
10
78.2555499999999995
20
-62.1299899999999994
40
0.5000090000089998
50
-120.29901505
51
-90.00034377
0
ARC
8
Edge.Cuts
10
79.8444499999999948
20
-66.1300080000000037
40
0.5000090000039998
50
59.70098495
51
89.99977082
0
ARC
8
Edge.Cuts
10
79.8444499999999948
20
-62.1299909999999969
40
0.500009136137531
50
-89.99965623
51
-59.70098495
0
ARC
8
Edge.Cuts
10
80.3489689999999968
20
-62.9934019999999961
40
0.4999998519649781
50
-25.70606862
51
120.29923855
0
ARC
8
Edge.Cuts
10
81.2499889999999994
20
-63.4271549999999991
40
0.499990000001
50
-205.70646243
51
-179.99988541
0
ARC
8
Edge.Cuts
10
80.3489699999999942
20
-65.2665980000000019
40
0.4999997985959594
50
-120.29939530
51
25.70642808
0
ARC
8
Edge.Cuts
10
81.2499889999999994
20
-64.8328429999999969
40
0.4999899543000839
50
-180.00022919
51
-154.29353757
0
LINE
8
Edge.Cuts
6
CONTINUOUS
10
96.4000009999999889
20
-83.8828409999999991
11
96.4000009999999889
21
-82.4771569999999912
0
LINE
8
Edge.Cuts
6
CONTINUOUS
10
97.3055480000000017
20
-81.6799999999999926
11
98.8944529999999986
21
-81.6799999999999926
0
LINE
8
Edge.Cuts
6
CONTINUOUS
10
98.8944520000000011
20
-84.6799989999999951
11
97.3055480000000017
21
-84.6799989999999951
0
LINE
8
Edge.Cuts
6
CONTINUOUS
10
99.7999989999999997
20
-82.4771569999999912
11
99.7999989999999997
21
-83.8828409999999991
0
ARC
8
Edge.Cuts
10
95.8999999999999915
20
-82.477099999999993
40
0.4999760117215625
50
-0.00653171
51
25.70023661
0
ARC
8
Edge.Cuts
10
96.8010299999999972
20
-82.0433999999999912
40
0.4999993648365966
50
-300.29939530
51
-154.29367517
0
ARC
8
Edge.Cuts
10
95.8996399999999909
20
-83.8827599999999904
40
0.5003610067191487
50
-25.69659863
51
-0.00938973
0
ARC
8
Edge.Cuts
10
96.8010299999999972
20
-84.316599999999994
40
0.4999960394813143
50
-205.70653133
51
-59.70037344
0
ARC
8
Edge.Cuts
10
97.3055499999999967
20
-85.1800099999999958
40
0.5000103584367028
50
90.00022918
51
120.29880049
0
ARC
8
Edge.Cuts
10
97.3055499999999967
20
-81.1799899999999894
40
0.5000090000089998
50
-120.29901505
51
-90.00034377
0
ARC
8
Edge.Cuts
10
98.894449999999992
20
-85.1800080000000008
40
0.5000090000039998
50
59.70098495
51
89.99977082
0
ARC
8
Edge.Cuts
10
98.894449999999992
20
-81.1799910000000011
40
0.500009136137531
50
-89.99965623
51
-59.70098495
0
ARC
8
Edge.Cuts
10
99.3989689999999939
20
-82.0434020000000004
40
0.4999998519649781
50
-25.70606862
51
120.29923855
0
ARC
8
Edge.Cuts
10
100.2999889999999965
20
-82.4771549999999962
40
0.499990000001
50
-205.70646243
51
-179.99988541
0
ARC
8
Edge.Cuts
10
99.3989699999999914
20
-84.316597999999999
40
0.4999997985959594
50
-120.29939530
51
25.70642808
0
ARC
8
Edge.Cuts
10
100.2999889999999965
20
-83.882842999999994
40
0.4999899543000839
50
-180.00022919
51
-154.29353757
0
LINE
8
Edge.Cuts
6
CONTINUOUS
10
58.3000009999999946
20
-45.7828409999999977
11
58.3000009999999946
21
-44.3771569999999969
0
LINE
8
Edge.Cuts
6
CONTINUOUS
10
59.2055480000000003
20
-43.5799999999999983
11
60.7944529999999972
21
-43.5799999999999983
0
LINE
8
Edge.Cuts
6
CONTINUOUS
10
60.7944519999999997
20
-46.5799990000000008
11
59.2055480000000003
21
-46.5799990000000008
0
LINE
8
Edge.Cuts
6
CONTINUOUS
10
61.6999989999999983
20
-44.3771569999999969
11
61.6999989999999983
21
-45.7828409999999977
0
ARC
8
Edge.Cuts
10
57.7999999999999972
20
-44.3770999999999987
40
0.4999760117215625
50
-0.00653171
51
25.70023661
0
ARC
8
Edge.Cuts
10
58.7010299999999958
20
-43.9433999999999969
40
0.4999993648365966
50
-300.29939530
51
-154.29367517
0
ARC
8
Edge.Cuts
10
57.7996399999999966
20
-45.7827599999999961
40
0.5003610067191487
50
-25.69659863
51
-0.00938973
0
ARC
8
Edge.Cuts
10
58.7010299999999958
20
-46.2165999999999997
40
0.4999960394813143
50
-205.70653133
51
-59.70037344
0
ARC
8
Edge.Cuts
10
59.2055499999999952
20
-47.0800099999999944
40
0.5000103584367028
50
90.00022918
51
120.29880049
0
ARC
8
Edge.Cuts
10
59.2055499999999952
20
-43.0799899999999951
40
0.5000090000089998
50
-120.29901505
51
-90.00034377
0
ARC
8
Edge.Cuts
10
60.7944499999999977
20
-47.0800079999999994
40
0.5000090000039998
50
59.70098495
51
89.99977082
0
ARC
8
Edge.Cuts
10
60.7944499999999977
20
-43.0799909999999997
40
0.500009136137531
50
-89.99965623
51
-59.70098495
0
ARC
8
Edge.Cuts
10
61.2989689999999996
20
-43.943401999999999
40
0.4999998519649781
50
-25.70606862
51
120.29923855
0
ARC
8
Edge.Cuts
10
62.1999889999999951
20
-44.3771549999999948
40
0.499990000001
50
-205.70646243
51
-179.99988541
0
ARC
8
Edge.Cuts
10
61.2989699999999971
20
-46.2165979999999976
40
0.4999997985959594
50
-120.29939530
51
25.70642808
0
ARC
8
Edge.Cuts
10
62.1999889999999951
20
-45.7828429999999997
40
0.4999899543000839
50
-180.00022919
51
-154.29353757
0
LINE
8
Edge.Cuts
6
CONTINUOUS
10
67.8250010000000003
20
-121.9828409999999934
11
67.8250010000000003
21
-120.5771569999999997
0
LINE
8
Edge.Cuts
6
CONTINUOUS
10
68.7305479999999989
20
-119.7800000000000011
11
70.3194529999999958
21
-119.7800000000000011
0
LINE
8
Edge.Cuts
6
CONTINUOUS
10
70.3194519999999983
20
-122.7799989999999895
11
68.7305479999999989
21
-122.7799989999999895
0
LINE
8
Edge.Cuts
6
CONTINUOUS
10
71.2249989999999968
20
-120.5771569999999997
11
71.2249989999999968
21
-121.9828409999999934
0
ARC
8
Edge.Cuts
10
67.3250000000000028
20
-120.5771000000000015
40
0.4999760117215625
50
-0.00653171
51
25.70023661
0
ARC
8
Edge.Cuts
10
68.2260299999999944
20
-120.1433999999999997
40
0.4999993648365966
50
-300.29939530
51
-154.29367517
0
ARC
8
Edge.Cuts
10
67.3246400000000023
20
-121.982759999999999
40
0.5003610067191487
50
-25.69659863
51
-0.00938973
0
ARC
8
Edge.Cuts
10
68.2260299999999944
20
-122.4165999999999883
40
0.4999960394813143
50
-205.70653133
51
-59.70037344
0
ARC
8
Edge.Cuts
10
68.7305499999999938
20
-123.2800099999999901
40
0.5000103584367028
50
90.00022918
51
120.29880049
0
ARC
8
Edge.Cuts
10
68.7305499999999938
20
-119.279989999999998
40
0.5000090000089998
50
-120.29901505
51
-90.00034377
0
ARC
8
Edge.Cuts
10
70.3194500000000033
20
-123.2800079999999951
40
0.5000090000039998
50
59.70098495
51
89.99977082
0
ARC
8
Edge.Cuts
10
70.3194500000000033
20
-119.2799909999999954
40
0.500009136137531
50
-89.99965623
51
-59.70098495
0
ARC
8
Edge.Cuts
10
70.8239689999999911
20
-120.1434019999999947
40
0.4999998519649781
50
-25.70606862
51
120.29923855
0
ARC
8
Edge.Cuts
10
71.7249889999999937
20
-120.5771549999999905
40
0.499990000001
50
-205.70646243
51
-179.99988541
0
ARC
8
Edge.Cuts
10
70.8239700000000028
20
-122.4165979999999934
40
0.4999997985959594
50
-120.29939530
51
25.70642808
0
ARC
8
Edge.Cuts
10
71.7249889999999937
20
-121.9828429999999884
40
0.4999899543000839
50
-180.00022919
51
-154.29353757
0
LINE
8
Edge.Cuts
6
CONTINUOUS
10
77.3500009999999918
20
-102.9328409999999963
11
77.3500009999999918
21
-101.5271569999999883
0
LINE
8
Edge.Cuts
6
CONTINUOUS
10
78.2555479999999903
20
-100.7299999999999898
11
79.8444530000000015
21
-100.7299999999999898
0
LINE
8
Edge.Cuts
6
CONTINUOUS
10
79.8444519999999898
20
-103.7299989999999923
11
78.2555479999999903
21
-103.7299989999999923
0
LINE
8
Edge.Cuts
6
CONTINUOUS
10
80.7499990000000025
20
-101.5271569999999883
11
80.7499990000000025
21
-102.9328409999999963
0
ARC
8
Edge.Cuts
10
76.8499999999999943
20
-101.5270999999999901
40
0.4999760117215625
50
-0.00653171
51
25.70023661
0
ARC
8
Edge.Cuts
10
77.7510300000000001
20
-101.0933999999999884
40
0.4999993648365966
50
-300.29939530
51
-154.29367517
0
ARC
8
Edge.Cuts
10
76.8496399999999937
20
-102.9327600000000018
40
0.5003610067191487
50
-25.69659863
51
-0.00938973
0
ARC
8
Edge.Cuts
10
77.7510300000000001
20
-103.3665999999999912
40
0.4999960394813143
50
-205.70653133
51
-59.70037344
0
ARC
8
Edge.Cuts
10
78.2555499999999995
20
-104.2300099999999929
40
0.5000103584367028
50
90.00022918
51
120.29880049
0
ARC
8
Edge.Cuts
10
78.2555499999999995
20
-100.2299900000000008
40
0.5000090000089998
50
-120.29901505
51
-90.00034377
0
ARC
8
Edge.Cuts
10
79.8444499999999948
20
-104.230007999999998
40
0.5000090000039998
50
59.70098495
51
89.99977082
0
ARC
8
Edge.Cuts
10
79.8444499999999948
20
-100.2299909999999983
40
0.500009136137531
50
-89.99965623
51
-59.70098495
0
ARC
8
Edge.Cuts
10
80.3489689999999968
20
-101.0934019999999975
40
0.4999998519649781
50
-25.70606862
51
120.29923855
0
ARC
8
Edge.Cuts
10
81.2499889999999994
20
-101.5271549999999934
40
0.499990000001
50
-205.70646243
51
-179.99988541
0
ARC
8
Edge.Cuts
10
80.3489699999999942
20
-103.3665979999999962
40
0.4999997985959594
50
-120.29939530
51
25.70642808
0
ARC
8
Edge.Cuts
10
81.2499889999999994
20
-102.9328429999999912
40
0.4999899543000839
50
-180.00022919
51
-154.29353757
0
LINE
8
Edge.Cuts
6
CONTINUOUS
10
96.4000009999999889
20
-121.9828409999999934
11
96.4000009999999889
21
-120.5771569999999997
0
LINE
8
Edge.Cuts
6
CONTINUOUS
10
97.3055480000000017
20
-119.7800000000000011
11
98.8944529999999986
21
-119.7800000000000011
0
LINE
8
Edge.Cuts
6
CONTINUOUS
10
98.8944520000000011
20
-122.7799989999999895
11
97.3055480000000017
21
-122.7799989999999895
0
LINE
8
Edge.Cuts
6
CONTINUOUS
10
99.7999989999999997
20
-120.5771569999999997
11
99.7999989999999997
21
-121.9828409999999934
0
ARC
8
Edge.Cuts
10
95.8999999999999915
20
-120.5771000000000015
40
0.4999760117215625
50
-0.00653171
51
25.70023661
0
ARC
8
Edge.Cuts
10
96.8010299999999972
20
-120.1433999999999997
40
0.4999993648365966
50
-300.29939530
51
-154.29367517
0
ARC
8
Edge.Cuts
10
95.8996399999999909
20
-121.982759999999999
40
0.5003610067191487
50
-25.69659863
51
-0.00938973
0
ARC
8
Edge.Cuts
10
96.8010299999999972
20
-122.4165999999999883
40
0.4999960394813143
50
-205.70653133
51
-59.70037344
0
ARC
8
Edge.Cuts
10
97.3055499999999967
20
-123.2800099999999901
40
0.5000103584367028
50
90.00022918
51
120.29880049
0
ARC
8
Edge.Cuts
10
97.3055499999999967
20
-119.279989999999998
40
0.5000090000089998
50
-120.29901505
51
-90.00034377
0
ARC
8
Edge.Cuts
10
98.894449999999992
20
-123.2800079999999951
40
0.5000090000039998
50
59.70098495
51
89.99977082
0
ARC
8
Edge.Cuts
10
98.894449999999992
20
-119.2799909999999954
40
0.500009136137531
50
-89.99965623
51
-59.70098495
0
ARC
8
Edge.Cuts
10
99.3989689999999939
20
-120.1434019999999947
40
0.4999998519649781
50
-25.70606862
51
120.29923855
0
ARC
8
Edge.Cuts
10
100.2999889999999965
20
-120.5771549999999905
40
0.499990000001
50
-205.70646243
51
-179.99988541
0
ARC
8
Edge.Cuts
10
99.3989699999999914
20
-122.4165979999999934
40
0.4999997985959594
50
-120.29939530
51
25.70642808
0
ARC
8
Edge.Cuts
10
100.2999889999999965
20
-121.9828429999999884
40
0.4999899543000839
50
-180.00022919
51
-154.29353757
0
LINE
8
Edge.Cuts
6
CONTINUOUS
10
96.4000009999999889
20
-102.9328409999999963
11
96.4000009999999889
21
-101.5271569999999883
0
LINE
8
Edge.Cuts
6
CONTINUOUS
10
97.3055480000000017
20
-100.7299999999999898
11
98.8944529999999986
21
-100.7299999999999898
0
LINE
8
Edge.Cuts
6
CONTINUOUS
10
98.8944520000000011
20
-103.7299989999999923
11
97.3055480000000017
21
-103.7299989999999923
0
LINE
8
Edge.Cuts
6
CONTINUOUS
10
99.7999989999999997
20
-101.5271569999999883
11
99.7999989999999997
21
-102.9328409999999963
0
ARC
8
Edge.Cuts
10
95.8999999999999915
20
-101.5270999999999901
40
0.4999760117215625
50
-0.00653171
51
25.70023661
0
ARC
8
Edge.Cuts
10
96.8010299999999972
20
-101.0933999999999884
40
0.4999993648365966
50
-300.29939530
51
-154.29367517
0
ARC
8
Edge.Cuts
10
95.8996399999999909
20
-102.9327600000000018
40
0.5003610067191487
50
-25.69659863
51
-0.00938973
0
ARC
8
Edge.Cuts
10
96.8010299999999972
20
-103.3665999999999912
40
0.4999960394813143
50
-205.70653133
51
-59.70037344
0
ARC
8
Edge.Cuts
10
97.3055499999999967
20
-104.2300099999999929
40
0.5000103584367028
50
90.00022918
51
120.29880049
0
ARC
8
Edge.Cuts
10
97.3055499999999967
20
-100.2299900000000008
40
0.5000090000089998
50
-120.29901505
51
-90.00034377
0
ARC
8
Edge.Cuts
10
98.894449999999992
20
-104.230007999999998
40
0.5000090000039998
50
59.70098495
51
89.99977082
0
ARC
8
Edge.Cuts
10
98.894449999999992
20
-100.2299909999999983
40
0.500009136137531
50
-89.99965623
51
-59.70098495
0
ARC
8
Edge.Cuts
10
99.3989689999999939
20
-101.0934019999999975
40
0.4999998519649781
50
-25.70606862
51
120.29923855
0
ARC
8
Edge.Cuts
10
100.2999889999999965
20
-101.5271549999999934
40
0.499990000001
50
-205.70646243
51
-179.99988541
0
ARC
8
Edge.Cuts
10
99.3989699999999914
20
-103.3665979999999962
40
0.4999997985959594
50
-120.29939530
51
25.70642808
0
ARC
8
Edge.Cuts
10
100.2999889999999965
20
-102.9328429999999912
40
0.4999899543000839
50
-180.00022919
51
-154.29353757
0
LINE
8
Edge.Cuts
6
CONTINUOUS
10
115.4500010000000003
20
-45.7828409999999977
11
115.4500010000000003
21
-44.3771569999999969
0
LINE
8
Edge.Cuts
6
CONTINUOUS
10
116.3555479999999989
20
-43.5799999999999983
11
117.9444529999999958
21
-43.5799999999999983
0
LINE
8
Edge.Cuts
6
CONTINUOUS
10
117.9444519999999983
20
-46.5799990000000008
11
116.3555479999999989
21
-46.5799990000000008
0
LINE
8
Edge.Cuts
6
CONTINUOUS
10
118.8499989999999968
20
-44.3771569999999969
11
118.8499989999999968
21
-45.7828409999999977
0
ARC
8
Edge.Cuts
10
114.9499999999999886
20
-44.3770999999999987
40
0.4999760117215625
50
-0.00653171
51
25.70023661
0
ARC
8
Edge.Cuts
10
115.8510299999999944
20
-43.9433999999999969
40
0.4999993648365966
50
-300.29939530
51
-154.29367517
0
ARC
8
Edge.Cuts
10
114.949639999999988
20
-45.7827599999999961
40
0.5003610067191487
50
-25.69659863
51
-0.00938973
0
ARC
8
Edge.Cuts
10
115.8510299999999944
20
-46.2165999999999997
40
0.4999960394813143
50
-205.70653133
51
-59.70037344
0
ARC
8
Edge.Cuts
10
116.3555499999999938
20
-47.0800099999999944
40
0.5000103584367028
50
90.00022918
51
120.29880049
0
ARC
8
Edge.Cuts
10
116.3555499999999938
20
-43.0799899999999951
40
0.5000090000089998
50
-120.29901505
51
-90.00034377
0
ARC
8
Edge.Cuts
10
117.9444499999999891
20
-47.0800079999999994
40
0.5000090000039998
50
59.70098495
51
89.99977082
0
ARC
8
Edge.Cuts
10
117.9444499999999891
20
-43.0799909999999997
40
0.500009136137531
50
-89.99965623
51
-59.70098495
0
ARC
8
Edge.Cuts
10
118.4489689999999911
20
-43.943401999999999
40
0.4999998519649781
50
-25.70606862
51
120.29923855
0
ARC
8
Edge.Cuts
10
119.3499889999999937
20
-44.3771549999999948
40
0.499990000001
50
-205.70646243
51
-179.99988541
0
ARC
8
Edge.Cuts
10
118.4489699999999885
20
-46.2165979999999976
40
0.4999997985959594
50
-120.29939530
51
25.70642808
0
ARC
8
Edge.Cuts
10
119.3499889999999937
20
-45.7828429999999997
40
0.4999899543000839
50
-180.00022919
51
-154.29353757
0
LINE
8
Edge.Cuts
6
CONTINUOUS
10
77.3500009999999918
20
-83.8828409999999991
11
77.3500009999999918
21
-82.4771569999999912
0
LINE
8
Edge.Cuts
6
CONTINUOUS
10
78.2555479999999903
20
-81.6799999999999926
11
79.8444530000000015
21
-81.6799999999999926
0
LINE
8
Edge.Cuts
6
CONTINUOUS
10
79.8444519999999898
20
-84.6799989999999951
11
78.2555479999999903
21
-84.6799989999999951
0
LINE
8
Edge.Cuts
6
CONTINUOUS
10
80.7499990000000025
20
-82.4771569999999912
11
80.7499990000000025
21
-83.8828409999999991
0
ARC
8
Edge.Cuts
10
76.8499999999999943
20
-82.477099999999993
40
0.4999760117215625
50
-0.00653171
51
25.70023661
0
ARC
8
Edge.Cuts
10
77.7510300000000001
20
-82.0433999999999912
40
0.4999993648365966
50
-300.29939530
51
-154.29367517
0
ARC
8
Edge.Cuts
10
76.8496399999999937
20
-83.8827599999999904
40
0.5003610067191487
50
-25.69659863
51
-0.00938973
0
ARC
8
Edge.Cuts
10
77.7510300000000001
20
-84.316599999999994
40
0.4999960394813143
50
-205.70653133
51
-59.70037344
0
ARC
8
Edge.Cuts
10
78.2555499999999995
20
-85.1800099999999958
40
0.5000103584367028
50
90.00022918
51
120.29880049
0
ARC
8
Edge.Cuts
10
78.2555499999999995
20
-81.1799899999999894
40
0.5000090000089998
50
-120.29901505
51
-90.00034377
0
ARC
8
Edge.Cuts
10
79.8444499999999948
20
-85.1800080000000008
40
0.5000090000039998
50
59.70098495
51
89.99977082
0
ARC
8
Edge.Cuts
10
79.8444499999999948
20
-81.1799910000000011
40
0.500009136137531
50
-89.99965623
51
-59.70098495
0
ARC
8
Edge.Cuts
10
80.3489689999999968
20
-82.0434020000000004
40
0.4999998519649781
50
-25.70606862
51
120.29923855
0
ARC
8
Edge.Cuts
10
81.2499889999999994
20
-82.4771549999999962
40
0.499990000001
50
-205.70646243
51
-179.99988541
0
ARC
8
Edge.Cuts
10
80.3489699999999942
20
-84.316597999999999
40
0.4999997985959594
50
-120.29939530
51
25.70642808
0
ARC
8
Edge.Cuts
10
81.2499889999999994
20
-83.882842999999994
40
0.4999899543000839
50
-180.00022919
51
-154.29353757
0
LINE
8
Edge.Cuts
6
CONTINUOUS
10
58.3000009999999946
20
-102.9328409999999963
11
58.3000009999999946
21
-101.5271569999999883
0
LINE
8
Edge.Cuts
6
CONTINUOUS
10
59.2055480000000003
20
-100.7299999999999898
11
60.7944529999999972
21
-100.7299999999999898
0
LINE
8
Edge.Cuts
6
CONTINUOUS
10
60.7944519999999997
20
-103.7299989999999923
11
59.2055480000000003
21
-103.7299989999999923
0
LINE
8
Edge.Cuts
6
CONTINUOUS
10
61.6999989999999983
20
-101.5271569999999883
11
61.6999989999999983
21
-102.9328409999999963
0
ARC
8
Edge.Cuts
10
57.7999999999999972
20
-101.5270999999999901
40
0.4999760117215625
50
-0.00653171
51
25.70023661
0
ARC
8
Edge.Cuts
10
58.7010299999999958
20
-101.0933999999999884
40
0.4999993648365966
50
-300.29939530
51
-154.29367517
0
ARC
8
Edge.Cuts
10
57.7996399999999966
20
-102.9327600000000018
40
0.5003610067191487
50
-25.69659863
51
-0.00938973
0
ARC
8
Edge.Cuts
10
58.7010299999999958
20
-103.3665999999999912
40
0.4999960394813143
50
-205.70653133
51
-59.70037344
0
ARC
8
Edge.Cuts
10
59.2055499999999952
20
-104.2300099999999929
40
0.5000103584367028
50
90.00022918
51
120.29880049
0
ARC
8
Edge.Cuts
10
59.2055499999999952
20
-100.2299900000000008
40
0.5000090000089998
50
-120.29901505
51
-90.00034377
0
ARC
8
Edge.Cuts
10
60.7944499999999977
20
-104.230007999999998
40
0.5000090000039998
50
59.70098495
51
89.99977082
0
ARC
8
Edge.Cuts
10
60.7944499999999977
20
-100.2299909999999983
40
0.500009136137531
50
-89.99965623
51
-59.70098495
0
ARC
8
Edge.Cuts
10
61.2989689999999996
20
-101.0934019999999975
40
0.4999998519649781
50
-25.70606862
51
120.29923855
0
ARC
8
Edge.Cuts
10
62.1999889999999951
20
-101.5271549999999934
40
0.499990000001
50
-205.70646243
51
-179.99988541
0
ARC
8
Edge.Cuts
10
61.2989699999999971
20
-103.3665979999999962
40
0.4999997985959594
50
-120.29939530
51
25.70642808
0
ARC
8
Edge.Cuts
10
62.1999889999999951
20
-102.9328429999999912
40
0.4999899543000839
50
-180.00022919
51
-154.29353757
0
LINE
8
Edge.Cuts
6
CONTINUOUS
10
96.4000009999999889
20
-45.7828409999999977
11
96.4000009999999889
21
-44.3771569999999969
0
LINE
8
Edge.Cuts
6
CONTINUOUS
10
97.3055480000000017
20
-43.5799999999999983
11
98.8944529999999986
21
-43.5799999999999983
0
LINE
8
Edge.Cuts
6
CONTINUOUS
10
98.8944520000000011
20
-46.5799990000000008
11
97.3055480000000017
21
-46.5799990000000008
0
LINE
8
Edge.Cuts
6
CONTINUOUS
10
99.7999989999999997
20
-44.3771569999999969
11
99.7999989999999997
21
-45.7828409999999977
0
ARC
8
Edge.Cuts
10
95.8999999999999915
20
-44.3770999999999987
40
0.4999760117215625
50
-0.00653171
51
25.70023661
0
ARC
8
Edge.Cuts
10
96.8010299999999972
20
-43.9433999999999969
40
0.4999993648365966
50
-300.29939530
51
-154.29367517
0
ARC
8
Edge.Cuts
10
95.8996399999999909
20
-45.7827599999999961
40
0.5003610067191487
50
-25.69659863
51
-0.00938973
0
ARC
8
Edge.Cuts
10
96.8010299999999972
20
-46.2165999999999997
40
0.4999960394813143
50
-205.70653133
51
-59.70037344
0
ARC
8
Edge.Cuts
10
97.3055499999999967
20
-47.0800099999999944
40
0.5000103584367028
50
90.00022918
51
120.29880049
0
ARC
8
Edge.Cuts
10
97.3055499999999967
20
-43.0799899999999951
40
0.5000090000089998
50
-120.29901505
51
-90.00034377
0
ARC
8
Edge.Cuts
10
98.894449999999992
20
-47.0800079999999994
40
0.5000090000039998
50
59.70098495
51
89.99977082
0
ARC
8
Edge.Cuts
10
98.894449999999992
20
-43.0799909999999997
40
0.500009136137531
50
-89.99965623
51
-59.70098495
0
ARC
8
Edge.Cuts
10
99.3989689999999939
20
-43.943401999999999
40
0.4999998519649781
50
-25.70606862
51
120.29923855
0
ARC
8
Edge.Cuts
10
100.2999889999999965
20
-44.3771549999999948
40
0.499990000001
50
-205.70646243
51
-179.99988541
0
ARC
8
Edge.Cuts
10
99.3989699999999914
20
-46.2165979999999976
40
0.4999997985959594
50
-120.29939530
51
25.70642808
0
ARC
8
Edge.Cuts
10
100.2999889999999965
20
-45.7828429999999997
40
0.4999899543000839
50
-180.00022919
51
-154.29353757
0
LINE
8
Edge.Cuts
6
CONTINUOUS
10
58.3000009999999946
20
-64.8328410000000019
11
58.3000009999999946
21
-63.427156999999994
0
LINE
8
Edge.Cuts
6
CONTINUOUS
10
59.2055480000000003
20
-62.6299999999999955
11
60.7944529999999972
21
-62.6299999999999955
0
LINE
8
Edge.Cuts
6
CONTINUOUS
10
60.7944519999999997
20
-65.629998999999998
11
59.2055480000000003
21
-65.629998999999998
0
LINE
8
Edge.Cuts
6
CONTINUOUS
10
61.6999989999999983
20
-63.427156999999994
11
61.6999989999999983
21
-64.8328410000000019
0
ARC
8
Edge.Cuts
10
57.7999999999999972
20
-63.4270999999999958
40
0.4999760117215625
50
-0.00653171
51
25.70023661
0
ARC
8
Edge.Cuts
10
58.7010299999999958
20
-62.9933999999999941
40
0.4999993648365966
50
-300.29939530
51
-154.29367517
0
ARC
8
Edge.Cuts
10
57.7996399999999966
20
-64.8327599999999933
40
0.5003610067191487
50
-25.69659863
51
-0.00938973
0
ARC
8
Edge.Cuts
10
58.7010299999999958
20
-65.2665999999999968
40
0.4999960394813143
50
-205.70653133
51
-59.70037344
0
ARC
8
Edge.Cuts
10
59.2055499999999952
20
-66.1300099999999986
40
0.5000103584367028
50
90.00022918
51
120.29880049
0
ARC
8
Edge.Cuts
10
59.2055499999999952
20
-62.1299899999999994
40
0.5000090000089998
50
-120.29901505
51
-90.00034377
0
ARC
8
Edge.Cuts
10
60.7944499999999977
20
-66.1300080000000037
40
0.5000090000039998
50
59.70098495
51
89.99977082
0
ARC
8
Edge.Cuts
10
60.7944499999999977
20
-62.1299909999999969
40
0.500009136137531
50
-89.99965623
51
-59.70098495
0
ARC
8
Edge.Cuts
10
61.2989689999999996
20
-62.9934019999999961
40
0.4999998519649781
50
-25.70606862
51
120.29923855
0
ARC
8
Edge.Cuts
10
62.1999889999999951
20
-63.4271549999999991
40
0.499990000001
50
-205.70646243
51
-179.99988541
0
ARC
8
Edge.Cuts
10
61.2989699999999971
20
-65.2665980000000019
40
0.4999997985959594
50
-120.29939530
51
25.70642808
0
ARC
8
Edge.Cuts
10
62.1999889999999951
20
-64.8328429999999969
40
0.4999899543000839
50
-180.00022919
51
-154.29353757
0
LINE
8
Edge.Cuts
6
CONTINUOUS
10
115.4500010000000003
20
-74.3578409999999934
11
115.4500010000000003
21
-72.9521569999999997
0
LINE
8
Edge.Cuts
6
CONTINUOUS
10
116.3555479999999989
20
-72.1550000000000011
11
117.9444529999999958
21
-72.1550000000000011
0
LINE
8
Edge.Cuts
6
CONTINUOUS
10
117.9444519999999983
20
-75.1549990000000037
11
116.3555479999999989
21
-75.1549990000000037
0
LINE
8
Edge.Cuts
6
CONTINUOUS
10
118.8499989999999968
20
-72.9521569999999997
11
118.8499989999999968
21
-74.3578409999999934
0
ARC
8
Edge.Cuts
10
114.9499999999999886
20
-72.9521000000000015
40
0.4999760117215625
50
-0.00653171
51
25.70023661
0
ARC
8
Edge.Cuts
10
115.8510299999999944
20
-72.5183999999999997
40
0.4999993648365966
50
-300.29939530
51
-154.29367517
0
ARC
8
Edge.Cuts
10
114.949639999999988
20
-74.357759999999999
40
0.5003610067191487
50
-25.69659863
51
-0.00938973
0
ARC
8
Edge.Cuts
10
115.8510299999999944
20
-74.7916000000000025
40
0.4999960394813143
50
-205.70653133
51
-59.70037344
0
ARC
8
Edge.Cuts
10
116.3555499999999938
20
-75.6550099999999901
40
0.5000103584367028
50
90.00022918
51
120.29880049
0
ARC
8
Edge.Cuts
10
116.3555499999999938
20
-71.654989999999998
40
0.5000090000089998
50
-120.29901505
51
-90.00034377
0
ARC
8
Edge.Cuts
10
117.9444499999999891
20
-75.6550079999999951
40
0.5000090000039998
50
59.70098495
51
89.99977082
0
ARC
8
Edge.Cuts
10
117.9444499999999891
20
-71.6549909999999954
40
0.500009136137531
50
-89.99965623
51
-59.70098495
0
ARC
8
Edge.Cuts
10
118.4489689999999911
20
-72.5184019999999947
40
0.4999998519649781
50
-25.70606862
51
120.29923855
0
ARC
8
Edge.Cuts
10
119.3499889999999937
20
-72.9521549999999905
40
0.499990000001
50
-205.70646243
51
-179.99988541
0
ARC
8
Edge.Cuts
10
118.4489699999999885
20
-74.7915979999999934
40
0.4999997985959594
50
-120.29939530
51
25.70642808
0
ARC
8
Edge.Cuts
10
119.3499889999999937
20
-74.3578430000000026
40
0.4999899543000839
50
-180.00022919
51
-154.29353757
0
LINE
8
Edge.Cuts
6
CONTINUOUS
10
115.4500010000000003
20
-112.4578410000000019
11
115.4500010000000003
21
-111.052156999999994
0
LINE
8
Edge.Cuts
6
CONTINUOUS
10
116.3555479999999989
20
-110.2549999999999955
11
117.9444529999999958
21
-110.2549999999999955
0
LINE
8
Edge.Cuts
6
CONTINUOUS
10
117.9444519999999983
20
-113.254998999999998
11
116.3555479999999989
21
-113.254998999999998
0
LINE
8
Edge.Cuts
6
CONTINUOUS
10
118.8499989999999968
20
-111.052156999999994
11
118.8499989999999968
21
-112.4578410000000019
0
ARC
8
Edge.Cuts
10
114.9499999999999886
20
-111.0520999999999958
40
0.4999760117215625
50
-0.00653171
51
25.70023661
0
ARC
8
Edge.Cuts
10
115.8510299999999944
20
-110.6183999999999941
40
0.4999993648365966
50
-300.29939530
51
-154.29367517
0
ARC
8
Edge.Cuts
10
114.949639999999988
20
-112.4577599999999933
40
0.5003610067191487
50
-25.69659863
51
-0.00938973
0
ARC
8
Edge.Cuts
10
115.8510299999999944
20
-112.8915999999999968
40
0.4999960394813143
50
-205.70653133
51
-59.70037344
0
ARC
8
Edge.Cuts
10
116.3555499999999938
20
-113.7550099999999986
40
0.5000103584367028
50
90.00022918
51
120.29880049
0
ARC
8
Edge.Cuts
10
116.3555499999999938
20
-109.7549899999999923
40
0.5000090000089998
50
-120.29901505
51
-90.00034377
0
ARC
8
Edge.Cuts
10
117.9444499999999891
20
-113.7550079999999895
40
0.5000090000039998
50
59.70098495
51
89.99977082
0
ARC
8
Edge.Cuts
10
117.9444499999999891
20
-109.7549909999999898
40
0.500009136137531
50
-89.99965623
51
-59.70098495
0
ARC
8
Edge.Cuts
10
118.4489689999999911
20
-110.618401999999989
40
0.4999998519649781
50
-25.70606862
51
120.29923855
0
ARC
8
Edge.Cuts
10
119.3499889999999937
20
-111.0521549999999991
40
0.499990000001
50
-205.70646243
51
-179.99988541
0
ARC
8
Edge.Cuts
10
118.4489699999999885
20
-112.8915980000000019
40
0.4999997985959594
50
-120.29939530
51
25.70642808
0
ARC
8
Edge.Cuts
10
119.3499889999999937
20
-112.4578429999999969
40
0.4999899543000839
50
-180.00022919
51
-154.29353757
0
LINE
8
Edge.Cuts
6
CONTINUOUS
10
77.3500009999999918
20
-45.7828409999999977
11
77.3500009999999918
21
-44.3771569999999969
0
LINE
8
Edge.Cuts
6
CONTINUOUS
10
78.2555479999999903
20
-43.5799999999999983
11
79.8444530000000015
21
-43.5799999999999983
0
LINE
8
Edge.Cuts
6
CONTINUOUS
10
79.8444519999999898
20
-46.5799990000000008
11
78.2555479999999903
21
-46.5799990000000008
0
LINE
8
Edge.Cuts
6
CONTINUOUS
10
80.7499990000000025
20
-44.3771569999999969
11
80.7499990000000025
21
-45.7828409999999977
0
ARC
8
Edge.Cuts
10
76.8499999999999943
20
-44.3770999999999987
40
0.4999760117215625
50
-0.00653171
51
25.70023661
0
ARC
8
Edge.Cuts
10
77.7510300000000001
20
-43.9433999999999969
40
0.4999993648365966
50
-300.29939530
51
-154.29367517
0
ARC
8
Edge.Cuts
10
76.8496399999999937
20
-45.7827599999999961
40
0.5003610067191487
50
-25.69659863
51
-0.00938973
0
ARC
8
Edge.Cuts
10
77.7510300000000001
20
-46.2165999999999997
40
0.4999960394813143
50
-205.70653133
51
-59.70037344
0
ARC
8
Edge.Cuts
10
78.2555499999999995
20
-47.0800099999999944
40
0.5000103584367028
50
90.00022918
51
120.29880049
0
ARC
8
Edge.Cuts
10
78.2555499999999995
20
-43.0799899999999951
40
0.5000090000089998
50
-120.29901505
51
-90.00034377
0
ARC
8
Edge.Cuts
10
79.8444499999999948
20
-47.0800079999999994
40
0.5000090000039998
50
59.70098495
51
89.99977082
0
ARC
8
Edge.Cuts
10
79.8444499999999948
20
-43.0799909999999997
40
0.500009136137531
50
-89.99965623
51
-59.70098495
0
ARC
8
Edge.Cuts
10
80.3489689999999968
20
-43.943401999999999
40
0.4999998519649781
50
-25.70606862
51
120.29923855
0
ARC
8
Edge.Cuts
10
81.2499889999999994
20
-44.3771549999999948
40
0.499990000001
50
-205.70646243
51
-179.99988541
0
ARC
8
Edge.Cuts
10
80.3489699999999942
20
-46.2165979999999976
40
0.4999997985959594
50
-120.29939530
51
25.70642808
0
ARC
8
Edge.Cuts
10
81.2499889999999994
20
-45.7828429999999997
40
0.4999899543000839
50
-180.00022919
51
-154.29353757
0
LINE
8
Edge.Cuts
6
CONTINUOUS
10
58.3000009999999946
20
-83.8828409999999991
11
58.3000009999999946
21
-82.4771569999999912
0
LINE
8
Edge.Cuts
6
CONTINUOUS
10
59.2055480000000003
20
-81.6799999999999926
11
60.7944529999999972
21
-81.6799999999999926
0
LINE
8
Edge.Cuts
6
CONTINUOUS
10
60.7944519999999997
20
-84.6799989999999951
11
59.2055480000000003
21
-84.6799989999999951
0
LINE
8
Edge.Cuts
6
CONTINUOUS
10
61.6999989999999983
20
-82.4771569999999912
11
61.6999989999999983
21
-83.8828409999999991
0
ARC
8
Edge.Cuts
10
57.7999999999999972
20
-82.477099999999993
40
0.4999760117215625
50
-0.00653171
51
25.70023661
0
ARC
8
Edge.Cuts
10
58.7010299999999958
20
-82.0433999999999912
40
0.4999993648365966
50
-300.29939530
51
-154.29367517
0
ARC
8
Edge.Cuts
10
57.7996399999999966
20
-83.8827599999999904
40
0.5003610067191487
50
-25.69659863
51
-0.00938973
0
ARC
8
Edge.Cuts
10
58.7010299999999958
20
-84.316599999999994
40
0.4999960394813143
50
-205.70653133
51
-59.70037344
0
ARC
8
Edge.Cuts
10
59.2055499999999952
20
-85.1800099999999958
40
0.5000103584367028
50
90.00022918
51
120.29880049
0
ARC
8
Edge.Cuts
10
59.2055499999999952
20
-81.1799899999999894
40
0.5000090000089998
50
-120.29901505
51
-90.00034377
0
ARC
8
Edge.Cuts
10
60.7944499999999977
20
-85.1800080000000008
40
0.5000090000039998
50
59.70098495
51
89.99977082
0
ARC
8
Edge.Cuts
10
60.7944499999999977
20
-81.1799910000000011
40
0.500009136137531
50
-89.99965623
51
-59.70098495
0
ARC
8
Edge.Cuts
10
61.2989689999999996
20
-82.0434020000000004
40
0.4999998519649781
50
-25.70606862
51
120.29923855
0
ARC
8
Edge.Cuts
10
62.1999889999999951
20
-82.4771549999999962
40
0.499990000001
50
-205.70646243
51
-179.99988541
0
ARC
8
Edge.Cuts
10
61.2989699999999971
20
-84.316597999999999
40
0.4999997985959594
50
-120.29939530
51
25.70642808
0
ARC
8
Edge.Cuts
10
62.1999889999999951
20
-83.882842999999994
40
0.4999899543000839
50
-180.00022919
51
-154.29353757
  0
ENDSEC
  0
EOF
