G04 #@! TF.GenerationSoftware,KiCad,Pcbnew,10.0.3*
G04 #@! TF.CreationDate,2026-08-01T14:13:13-04:00*
G04 #@! TF.ProjectId,numpad,6e756d70-6164-42e6-9b69-6361645f7063,0*
G04 #@! TF.SameCoordinates,Original*
G04 #@! TF.FileFunction,Paste,Bot*
G04 #@! TF.FilePolarity,Positive*
%FSLAX46Y46*%
G04 Gerber Fmt 4.6, Leading zero omitted, Abs format (unit mm)*
G04 Created by KiCad (PCBNEW 10.0.3) date 2026-08-01 14:13:13*
%MOMM*%
%LPD*%
G01*
G04 APERTURE LIST*
G04 Aperture macros list*
%AMRoundRect*
0 Rectangle with rounded corners*
0 $1 Rounding radius*
0 $2 $3 $4 $5 $6 $7 $8 $9 X,Y pos of 4 corners*
0 Add a 4 corners polygon primitive as box body*
4,1,4,$2,$3,$4,$5,$6,$7,$8,$9,$2,$3,0*
0 Add four circle primitives for the rounded corners*
1,1,$1+$1,$2,$3*
1,1,$1+$1,$4,$5*
1,1,$1+$1,$6,$7*
1,1,$1+$1,$8,$9*
0 Add four rect primitives between the rounded corners*
20,1,$1+$1,$2,$3,$4,$5,0*
20,1,$1+$1,$4,$5,$6,$7,0*
20,1,$1+$1,$6,$7,$8,$9,0*
20,1,$1+$1,$8,$9,$2,$3,0*%
%AMFreePoly0*
4,1,18,-0.410000,0.593000,-0.403758,0.624380,-0.385983,0.650983,-0.359380,0.668758,-0.328000,0.675000,0.328000,0.675000,0.359380,0.668758,0.385983,0.650983,0.403758,0.624380,0.410000,0.593000,0.410000,-0.593000,0.403758,-0.624380,0.385983,-0.650983,0.359380,-0.668758,0.328000,-0.675000,0.000000,-0.675000,-0.410000,-0.265000,-0.410000,0.593000,-0.410000,0.593000,$1*%
G04 Aperture macros list end*
%ADD10RoundRect,0.150000X0.587500X0.150000X-0.587500X0.150000X-0.587500X-0.150000X0.587500X-0.150000X0*%
%ADD11RoundRect,0.250000X1.025000X1.000000X-1.025000X1.000000X-1.025000X-1.000000X1.025000X-1.000000X0*%
%ADD12RoundRect,0.082000X0.593000X-0.328000X0.593000X0.328000X-0.593000X0.328000X-0.593000X-0.328000X0*%
%ADD13FreePoly0,90.000000*%
%ADD14RoundRect,0.225000X0.375000X-0.225000X0.375000X0.225000X-0.375000X0.225000X-0.375000X-0.225000X0*%
%ADD15RoundRect,0.250000X0.475000X-0.250000X0.475000X0.250000X-0.475000X0.250000X-0.475000X-0.250000X0*%
%ADD16RoundRect,0.225000X0.225000X0.250000X-0.225000X0.250000X-0.225000X-0.250000X0.225000X-0.250000X0*%
%ADD17RoundRect,0.150000X0.512500X0.150000X-0.512500X0.150000X-0.512500X-0.150000X0.512500X-0.150000X0*%
%ADD18RoundRect,0.200000X0.275000X-0.200000X0.275000X0.200000X-0.275000X0.200000X-0.275000X-0.200000X0*%
G04 APERTURE END LIST*
D10*
X104937500Y-21050000D03*
X104937500Y-22950000D03*
X103062500Y-22000000D03*
D11*
X52640000Y-37460000D03*
X66090000Y-34920000D03*
D12*
X95375000Y-63380000D03*
X95375000Y-64880000D03*
X100825000Y-63380000D03*
D13*
X100825000Y-64880000D03*
D14*
X104600000Y-123350000D03*
X104600000Y-120050000D03*
D11*
X52640000Y-56510000D03*
X66090000Y-53970000D03*
D14*
X66500000Y-66200000D03*
X66500000Y-62900000D03*
D12*
X76325000Y-63380000D03*
X76325000Y-64880000D03*
X81775000Y-63380000D03*
D13*
X81775000Y-64880000D03*
D14*
X85550000Y-85250000D03*
X85550000Y-81950000D03*
D12*
X95375000Y-82430000D03*
X95375000Y-83930000D03*
X100825000Y-82430000D03*
D13*
X100825000Y-83930000D03*
D15*
X49000000Y-37950000D03*
X49000000Y-36050000D03*
D16*
X54275000Y-64550000D03*
X52725000Y-64550000D03*
D12*
X57275000Y-44330000D03*
X57275000Y-45830000D03*
X62725000Y-44330000D03*
D13*
X62725000Y-45830000D03*
D14*
X66500000Y-85250000D03*
X66500000Y-81950000D03*
X104600000Y-104300000D03*
X104600000Y-101000000D03*
D16*
X73325000Y-64550000D03*
X71775000Y-64550000D03*
X92375000Y-45500000D03*
X90825000Y-45500000D03*
D11*
X71690000Y-75560000D03*
X85140000Y-73020000D03*
X90740000Y-94610000D03*
X104190000Y-92070000D03*
D14*
X66500000Y-47150000D03*
X66500000Y-43850000D03*
X85550000Y-47150000D03*
X85550000Y-43850000D03*
D12*
X66800000Y-120530000D03*
X66800000Y-122030000D03*
X72250000Y-120530000D03*
D13*
X72250000Y-122030000D03*
D17*
X58137500Y-29050000D03*
X58137500Y-30000000D03*
X58137500Y-30950000D03*
X55862500Y-30950000D03*
X55862500Y-29050000D03*
D14*
X76025000Y-123350000D03*
X76025000Y-120050000D03*
D12*
X76325000Y-101480000D03*
X76325000Y-102980000D03*
X81775000Y-101480000D03*
D13*
X81775000Y-102980000D03*
D11*
X52640000Y-94610000D03*
X66090000Y-92070000D03*
D16*
X111425000Y-112175000D03*
X109875000Y-112175000D03*
X111425000Y-45500000D03*
X109875000Y-45500000D03*
D11*
X52640000Y-75560000D03*
X66090000Y-73020000D03*
D16*
X73325000Y-102650000D03*
X71775000Y-102650000D03*
D11*
X90740000Y-37460000D03*
X104190000Y-34920000D03*
D12*
X95375000Y-120530000D03*
X95375000Y-122030000D03*
X100825000Y-120530000D03*
D13*
X100825000Y-122030000D03*
D16*
X92375000Y-64550000D03*
X90825000Y-64550000D03*
D18*
X107000000Y-22825000D03*
X107000000Y-21175000D03*
D16*
X92375000Y-83600000D03*
X90825000Y-83600000D03*
X54275000Y-45500000D03*
X52725000Y-45500000D03*
X54275000Y-102650000D03*
X52725000Y-102650000D03*
D14*
X123650000Y-47150000D03*
X123650000Y-43850000D03*
D12*
X95375000Y-101480000D03*
X95375000Y-102980000D03*
X100825000Y-101480000D03*
D13*
X100825000Y-102980000D03*
D14*
X66500000Y-104300000D03*
X66500000Y-101000000D03*
D16*
X63800000Y-121700000D03*
X62250000Y-121700000D03*
X54275000Y-83600000D03*
X52725000Y-83600000D03*
D11*
X109790000Y-104135000D03*
X123240000Y-101595000D03*
D16*
X73325000Y-83600000D03*
X71775000Y-83600000D03*
X92375000Y-121700000D03*
X90825000Y-121700000D03*
D14*
X123650000Y-113825000D03*
X123650000Y-110525000D03*
X123650000Y-75725000D03*
X123650000Y-72425000D03*
D12*
X114425000Y-44330000D03*
X114425000Y-45830000D03*
X119875000Y-44330000D03*
D13*
X119875000Y-45830000D03*
D14*
X85550000Y-104300000D03*
X85550000Y-101000000D03*
X104600000Y-47150000D03*
X104600000Y-43850000D03*
D11*
X62165000Y-113660000D03*
X75615000Y-111120000D03*
D12*
X76325000Y-82430000D03*
X76325000Y-83930000D03*
X81775000Y-82430000D03*
D13*
X81775000Y-83930000D03*
D12*
X57275000Y-101480000D03*
X57275000Y-102980000D03*
X62725000Y-101480000D03*
D13*
X62725000Y-102980000D03*
D11*
X71690000Y-37460000D03*
X85140000Y-34920000D03*
X109790000Y-66035000D03*
X123240000Y-63495000D03*
X71690000Y-94610000D03*
X85140000Y-92070000D03*
D12*
X95375000Y-44330000D03*
X95375000Y-45830000D03*
X100825000Y-44330000D03*
D13*
X100825000Y-45830000D03*
D16*
X53775000Y-30000000D03*
X52225000Y-30000000D03*
X73325000Y-45500000D03*
X71775000Y-45500000D03*
D12*
X57275000Y-63380000D03*
X57275000Y-64880000D03*
X62725000Y-63380000D03*
D13*
X62725000Y-64880000D03*
D10*
X98937500Y-21050000D03*
X98937500Y-22950000D03*
X97062500Y-22000000D03*
D11*
X90740000Y-75560000D03*
X104190000Y-73020000D03*
X90740000Y-113660000D03*
X104190000Y-111120000D03*
D12*
X114425000Y-72905000D03*
X114425000Y-74405000D03*
X119875000Y-72905000D03*
D13*
X119875000Y-74405000D03*
D12*
X114425000Y-111005000D03*
X114425000Y-112505000D03*
X119875000Y-111005000D03*
D13*
X119875000Y-112505000D03*
D11*
X90740000Y-56510000D03*
X104190000Y-53970000D03*
D16*
X111425000Y-74075000D03*
X109875000Y-74075000D03*
D11*
X71690000Y-56510000D03*
X85140000Y-53970000D03*
D16*
X92375000Y-102650000D03*
X90825000Y-102650000D03*
D12*
X76325000Y-44330000D03*
X76325000Y-45830000D03*
X81775000Y-44330000D03*
D13*
X81775000Y-45830000D03*
D18*
X60250000Y-30825000D03*
X60250000Y-29175000D03*
X95000000Y-22825000D03*
X95000000Y-21175000D03*
D12*
X57275000Y-82430000D03*
X57275000Y-83930000D03*
X62725000Y-82430000D03*
D13*
X62725000Y-83930000D03*
D14*
X104600000Y-66200000D03*
X104600000Y-62900000D03*
X104600000Y-85250000D03*
X104600000Y-81950000D03*
D11*
X109790000Y-37460000D03*
X123240000Y-34920000D03*
D15*
X49000000Y-41950000D03*
X49000000Y-40050000D03*
D14*
X85550000Y-66200000D03*
X85550000Y-62900000D03*
M02*
