M48
; DRILL file KiCad 10.0.3 date 2026-07-24T00:07:01
; FORMAT={-:-/ absolute / metric / decimal}
; #@! TF.CreationDate,2026-07-24T00:07:01-04:00
; #@! TF.GenerationSoftware,Kicad,Pcbnew,10.0.3
; #@! TF.FileFunction,NonPlated,1,2,NPTH
FMAT,2
METRIC
; #@! TA.AperFunction,NonPlated,NPTH,ComponentDrill
T1C0.650
; #@! TA.AperFunction,NonPlated,NPTH,ComponentDrill
T2C1.750
; #@! TA.AperFunction,NonPlated,NPTH,ComponentDrill
T3C2.200
; #@! TA.AperFunction,NonPlated,NPTH,ComponentDrill
T4C3.048
; #@! TA.AperFunction,NonPlated,NPTH,ComponentDrill
T5C3.988
%
G90
G05
T1
X85.61Y-11.25
X91.39Y-11.25
T2
X54.92Y-40.0
X54.92Y-59.05
X54.92Y-78.1
X54.92Y-97.15
X64.445Y-116.2
X65.08Y-40.0
X65.08Y-59.05
X65.08Y-78.1
X65.08Y-97.15
X73.97Y-40.0
X73.97Y-59.05
X73.97Y-78.1
X73.97Y-97.15
X74.605Y-116.2
X84.13Y-40.0
X84.13Y-59.05
X84.13Y-78.1
X84.13Y-97.15
X93.02Y-40.0
X93.02Y-59.05
X93.02Y-78.1
X93.02Y-97.15
X93.02Y-116.2
X103.18Y-40.0
X103.18Y-59.05
X103.18Y-78.1
X103.18Y-97.15
X103.18Y-116.2
X112.07Y-40.0
X112.07Y-68.575
X112.07Y-106.675
X122.23Y-40.0
X122.23Y-68.575
X122.23Y-106.675
T3
X50.0Y-129.0
X55.75Y-8.75
X114.1Y-26.7
X127.0Y-129.0
T4
X57.619Y-109.215
X81.431Y-109.215
X124.135Y-56.669
X124.135Y-80.481
X124.135Y-94.769
X124.135Y-118.581
T5
X57.619Y-124.455
X60.0Y-40.0
X60.0Y-59.05
X60.0Y-78.1
X60.0Y-97.15
X69.525Y-116.2
X79.05Y-40.0
X79.05Y-59.05
X79.05Y-78.1
X79.05Y-97.15
X81.431Y-124.455
X98.1Y-40.0
X98.1Y-59.05
X98.1Y-78.1
X98.1Y-97.15
X98.1Y-116.2
X108.895Y-56.669
X108.895Y-80.481
X108.895Y-94.769
X108.895Y-118.581
X117.15Y-40.0
X117.15Y-68.575
X117.15Y-106.675
M30
