%TF.GenerationSoftware,KiCad,Pcbnew,10.0.3*%
%TF.CreationDate,2026-07-23T22:30:12-04:00*%
%TF.ProjectId,numpad,6e756d70-6164-42e6-9b69-6361645f7063,0*%
%TF.SameCoordinates,Original*%
%TF.FileFunction,Paste,Top*%
%TF.FilePolarity,Positive*%
%FSLAX46Y46*%
G04 Gerber Fmt 4.6, Leading zero omitted, Abs format (unit mm)*
G04 Created by KiCad (PCBNEW 10.0.3) date 2026-07-23 22:30:12*
%MOMM*%
%LPD*%
G01*
G04 APERTURE LIST*
G04 Aperture macros list*
%AMRoundRect*
0 Rectangle with rounded corners*
0 $1 Rounding radius*
0 $2 $3 $4 $5 $6 $7 $8 $9 X,Y pos of 4 corners*
0 Add a 4 corners polygon primitive as box body*
4,1,4,$2,$3,$4,$5,$6,$7,$8,$9,$2,$3,0*
0 Add four circle primitives for the rounded corners*
1,1,$1+$1,$2,$3*
1,1,$1+$1,$4,$5*
1,1,$1+$1,$6,$7*
1,1,$1+$1,$8,$9*
0 Add four rect primitives between the rounded corners*
20,1,$1+$1,$2,$3,$4,$5,0*
20,1,$1+$1,$4,$5,$6,$7,0*
20,1,$1+$1,$6,$7,$8,$9,0*
20,1,$1+$1,$8,$9,$2,$3,0*%
G04 Aperture macros list end*
%ADD10RoundRect,0.249999X-0.395001X-0.395001X0.395001X-0.395001X0.395001X0.395001X-0.395001X0.395001X0*%
%ADD11RoundRect,0.050000X-0.387500X-0.050000X0.387500X-0.050000X0.387500X0.050000X-0.387500X0.050000X0*%
%ADD12RoundRect,0.050000X-0.050000X-0.387500X0.050000X-0.387500X0.050000X0.387500X-0.050000X0.387500X0*%
%ADD13RoundRect,0.200000X0.200000X0.275000X-0.200000X0.275000X-0.200000X-0.275000X0.200000X-0.275000X0*%
%ADD14RoundRect,0.225000X-0.225000X-0.250000X0.225000X-0.250000X0.225000X0.250000X-0.225000X0.250000X0*%
%ADD15RoundRect,0.200000X-0.200000X-0.275000X0.200000X-0.275000X0.200000X0.275000X-0.200000X0.275000X0*%
%ADD16RoundRect,0.200000X-0.275000X0.200000X-0.275000X-0.200000X0.275000X-0.200000X0.275000X0.200000X0*%
%ADD17RoundRect,0.225000X0.225000X0.250000X-0.225000X0.250000X-0.225000X-0.250000X0.225000X-0.250000X0*%
%ADD18RoundRect,0.375000X-0.625000X-0.375000X0.625000X-0.375000X0.625000X0.375000X-0.625000X0.375000X0*%
%ADD19RoundRect,0.500000X-0.500000X-1.400000X0.500000X-1.400000X0.500000X1.400000X-0.500000X1.400000X0*%
%ADD20RoundRect,0.225000X-0.225000X-0.375000X0.225000X-0.375000X0.225000X0.375000X-0.225000X0.375000X0*%
%ADD21RoundRect,0.200000X0.275000X-0.200000X0.275000X0.200000X-0.275000X0.200000X-0.275000X-0.200000X0*%
%ADD22RoundRect,0.250000X-0.250000X-0.475000X0.250000X-0.475000X0.250000X0.475000X-0.250000X0.475000X0*%
%ADD23RoundRect,0.250000X-0.525000X-0.400000X0.525000X-0.400000X0.525000X0.400000X-0.525000X0.400000X0*%
%ADD24RoundRect,0.150000X0.150000X0.575000X-0.150000X0.575000X-0.150000X-0.575000X0.150000X-0.575000X0*%
%ADD25RoundRect,0.075000X0.075000X0.650000X-0.075000X0.650000X-0.075000X-0.650000X0.075000X-0.650000X0*%
%ADD26RoundRect,0.225000X0.250000X-0.225000X0.250000X0.225000X-0.250000X0.225000X-0.250000X-0.225000X0*%
%ADD27RoundRect,0.250000X0.450000X0.350000X-0.450000X0.350000X-0.450000X-0.350000X0.450000X-0.350000X0*%
%ADD28RoundRect,0.225000X-0.250000X0.225000X-0.250000X-0.225000X0.250000X-0.225000X0.250000X0.225000X0*%
%ADD29RoundRect,0.162500X-0.162500X0.650000X-0.162500X-0.650000X0.162500X-0.650000X0.162500X0.650000X0*%
%ADD30RoundRect,0.150000X-0.512500X-0.150000X0.512500X-0.150000X0.512500X0.150000X-0.512500X0.150000X0*%
%ADD31RoundRect,0.250000X0.475000X-0.250000X0.475000X0.250000X-0.475000X0.250000X-0.475000X-0.250000X0*%
G04 APERTURE END LIST*
D10*
%TO.C,U3*%
X73200000Y-23600000D03*
X73200000Y-25200000D03*
X74800000Y-23600000D03*
X74800000Y-25200000D03*
D11*
X70562500Y-21800000D03*
X70562500Y-22200000D03*
X70562500Y-22600000D03*
X70562500Y-23000000D03*
X70562500Y-23400000D03*
X70562500Y-23800000D03*
X70562500Y-24200000D03*
X70562500Y-24600000D03*
X70562500Y-25000000D03*
X70562500Y-25400000D03*
X70562500Y-25800000D03*
X70562500Y-26200000D03*
X70562500Y-26600000D03*
X70562500Y-27000000D03*
D12*
X71400000Y-27837500D03*
X71800000Y-27837500D03*
X72200000Y-27837500D03*
X72600000Y-27837500D03*
X73000000Y-27837500D03*
X73400000Y-27837500D03*
X73800000Y-27837500D03*
X74200000Y-27837500D03*
X74600000Y-27837500D03*
X75000000Y-27837500D03*
X75400000Y-27837500D03*
X75800000Y-27837500D03*
X76200000Y-27837500D03*
X76600000Y-27837500D03*
D11*
X77437500Y-27000000D03*
X77437500Y-26600000D03*
X77437500Y-26200000D03*
X77437500Y-25800000D03*
X77437500Y-25400000D03*
X77437500Y-25000000D03*
X77437500Y-24600000D03*
X77437500Y-24200000D03*
X77437500Y-23800000D03*
X77437500Y-23400000D03*
X77437500Y-23000000D03*
X77437500Y-22600000D03*
X77437500Y-22200000D03*
X77437500Y-21800000D03*
D12*
X76600000Y-20962500D03*
X76200000Y-20962500D03*
X75800000Y-20962500D03*
X75400000Y-20962500D03*
X75000000Y-20962500D03*
X74600000Y-20962500D03*
X74200000Y-20962500D03*
X73800000Y-20962500D03*
X73400000Y-20962500D03*
X73000000Y-20962500D03*
X72600000Y-20962500D03*
X72200000Y-20962500D03*
X71800000Y-20962500D03*
X71400000Y-20962500D03*
%TD*%
D13*
%TO.C,R6*%
X84225000Y-19600000D03*
X82575000Y-19600000D03*
%TD*%
D14*
%TO.C,C16*%
X65525000Y-30600000D03*
X67075000Y-30600000D03*
%TD*%
D15*
%TO.C,R3*%
X100195000Y-26500000D03*
X101845000Y-26500000D03*
%TD*%
D16*
%TO.C,R1*%
X85700000Y-14975000D03*
X85700000Y-16625000D03*
%TD*%
D17*
%TO.C,C6*%
X67375000Y-23700000D03*
X65825000Y-23700000D03*
%TD*%
D18*
%TO.C,U1*%
X62850000Y-8700000D03*
X62850000Y-11000000D03*
D19*
X69150000Y-11000000D03*
D18*
X62850000Y-13300000D03*
%TD*%
D20*
%TO.C,D18*%
X119850000Y-25250000D03*
X123150000Y-25250000D03*
%TD*%
D21*
%TO.C,R4*%
X78700000Y-8825000D03*
X78700000Y-7175000D03*
%TD*%
D14*
%TO.C,C5*%
X77825000Y-19600000D03*
X79375000Y-19600000D03*
%TD*%
%TO.C,C8*%
X78925000Y-22500000D03*
X80475000Y-22500000D03*
%TD*%
%TO.C,C14*%
X61325000Y-17800000D03*
X62875000Y-17800000D03*
%TD*%
D22*
%TO.C,C2*%
X61350000Y-19700000D03*
X63250000Y-19700000D03*
%TD*%
D23*
%TO.C,SW2*%
X97040000Y-19750000D03*
X105000000Y-19750000D03*
X97040000Y-24250000D03*
X105000000Y-24250000D03*
%TD*%
%TO.C,SW1*%
X97060000Y-8000000D03*
X105020000Y-8000000D03*
X97060000Y-12500000D03*
X105020000Y-12500000D03*
%TD*%
D24*
%TO.C,J1*%
X91750000Y-12695000D03*
X90950000Y-12695000D03*
D25*
X89750000Y-12695000D03*
X88750000Y-12695000D03*
X88250000Y-12695000D03*
X87250000Y-12695000D03*
D24*
X86050000Y-12695000D03*
X85250000Y-12695000D03*
X85250000Y-12695000D03*
X86050000Y-12695000D03*
D25*
X86750000Y-12695000D03*
X87750000Y-12695000D03*
X89250000Y-12695000D03*
X90250000Y-12695000D03*
D24*
X90950000Y-12695000D03*
X91750000Y-12695000D03*
%TD*%
D26*
%TO.C,C4*%
X70300000Y-19575000D03*
X70300000Y-18025000D03*
%TD*%
D13*
%TO.C,R7*%
X84225000Y-18100000D03*
X82575000Y-18100000D03*
%TD*%
D27*
%TO.C,Y1*%
X67700000Y-27150000D03*
X65500000Y-27150000D03*
X65500000Y-28850000D03*
X67700000Y-28850000D03*
%TD*%
D21*
%TO.C,R5*%
X80200000Y-8825000D03*
X80200000Y-7175000D03*
%TD*%
D15*
%TO.C,R8*%
X70700000Y-31100000D03*
X72350000Y-31100000D03*
%TD*%
D14*
%TO.C,C9*%
X78925000Y-24500000D03*
X80475000Y-24500000D03*
%TD*%
D28*
%TO.C,C7*%
X73800000Y-30125000D03*
X73800000Y-31675000D03*
%TD*%
D29*
%TO.C,U4*%
X76610000Y-7825000D03*
X75340000Y-7825000D03*
X74070000Y-7825000D03*
X72800000Y-7825000D03*
X72800000Y-15000000D03*
X74070000Y-15000000D03*
X75340000Y-15000000D03*
X76610000Y-15000000D03*
%TD*%
D17*
%TO.C,C15*%
X67375000Y-25300000D03*
X65825000Y-25300000D03*
%TD*%
D30*
%TO.C,U2*%
X87362500Y-14750000D03*
X87362500Y-15700000D03*
X87362500Y-16650000D03*
X89637500Y-16650000D03*
X89637500Y-15700000D03*
X89637500Y-14750000D03*
%TD*%
D31*
%TO.C,C1*%
X59500000Y-12950000D03*
X59500000Y-11050000D03*
%TD*%
D26*
%TO.C,C11*%
X74400000Y-19050000D03*
X74400000Y-17500000D03*
%TD*%
D14*
%TO.C,C10*%
X78925000Y-26200000D03*
X80475000Y-26200000D03*
%TD*%
D28*
%TO.C,C12*%
X75400000Y-30125000D03*
X75400000Y-31675000D03*
%TD*%
D14*
%TO.C,C13*%
X61325000Y-16100000D03*
X62875000Y-16100000D03*
%TD*%
%TO.C,C3*%
X78330000Y-15012500D03*
X79880000Y-15012500D03*
%TD*%
D16*
%TO.C,R2*%
X91800000Y-15375000D03*
X91800000Y-17025000D03*
%TD*%
M02*
