%TF.GenerationSoftware,KiCad,Pcbnew,10.0.3*%
%TF.CreationDate,2026-07-24T00:06:54-04:00*%
%TF.ProjectId,numpad,6e756d70-6164-42e6-9b69-6361645f7063,0*%
%TF.SameCoordinates,Original*%
%TF.FileFunction,Legend,Top*%
%TF.FilePolarity,Positive*%
%FSLAX46Y46*%
G04 Gerber Fmt 4.6, Leading zero omitted, Abs format (unit mm)*
G04 Created by KiCad (PCBNEW 10.0.3) date 2026-07-24 00:06:54*
%MOMM*%
%LPD*%
G01*
G04 APERTURE LIST*
G04 Aperture macros list*
%AMRoundRect*
0 Rectangle with rounded corners*
0 $1 Rounding radius*
0 $2 $3 $4 $5 $6 $7 $8 $9 X,Y pos of 4 corners*
0 Add a 4 corners polygon primitive as box body*
4,1,4,$2,$3,$4,$5,$6,$7,$8,$9,$2,$3,0*
0 Add four circle primitives for the rounded corners*
1,1,$1+$1,$2,$3*
1,1,$1+$1,$4,$5*
1,1,$1+$1,$6,$7*
1,1,$1+$1,$8,$9*
0 Add four rect primitives between the rounded corners*
20,1,$1+$1,$2,$3,$4,$5,0*
20,1,$1+$1,$4,$5,$6,$7,0*
20,1,$1+$1,$6,$7,$8,$9,0*
20,1,$1+$1,$8,$9,$2,$3,0*%
G04 Aperture macros list end*
%ADD10C,0.150000*%
%ADD11C,0.120000*%
%ADD12RoundRect,0.050000X-0.387500X-0.050000X0.387500X-0.050000X0.387500X0.050000X-0.387500X0.050000X0*%
%ADD13RoundRect,0.050000X-0.050000X-0.387500X0.050000X-0.387500X0.050000X0.387500X-0.050000X0.387500X0*%
%ADD14R,3.200000X3.200000*%
%ADD15RoundRect,0.200000X0.200000X0.275000X-0.200000X0.275000X-0.200000X-0.275000X0.200000X-0.275000X0*%
%ADD16RoundRect,0.225000X-0.225000X-0.250000X0.225000X-0.250000X0.225000X0.250000X-0.225000X0.250000X0*%
%ADD17RoundRect,0.200000X-0.200000X-0.275000X0.200000X-0.275000X0.200000X0.275000X-0.200000X0.275000X0*%
%ADD18RoundRect,0.200000X-0.275000X0.200000X-0.275000X-0.200000X0.275000X-0.200000X0.275000X0.200000X0*%
%ADD19RoundRect,0.225000X0.225000X0.250000X-0.225000X0.250000X-0.225000X-0.250000X0.225000X-0.250000X0*%
%ADD20R,1.700000X1.700000*%
%ADD21C,1.700000*%
%ADD22RoundRect,0.375000X-0.625000X-0.375000X0.625000X-0.375000X0.625000X0.375000X-0.625000X0.375000X0*%
%ADD23RoundRect,0.500000X-0.500000X-1.400000X0.500000X-1.400000X0.500000X1.400000X-0.500000X1.400000X0*%
%ADD24RoundRect,0.225000X-0.225000X-0.375000X0.225000X-0.375000X0.225000X0.375000X-0.225000X0.375000X0*%
%ADD25RoundRect,0.200000X0.275000X-0.200000X0.275000X0.200000X-0.275000X0.200000X-0.275000X-0.200000X0*%
%ADD26RoundRect,0.250000X-0.250000X-0.475000X0.250000X-0.475000X0.250000X0.475000X-0.250000X0.475000X0*%
%ADD27RoundRect,0.250000X-0.525000X-0.400000X0.525000X-0.400000X0.525000X0.400000X-0.525000X0.400000X0*%
%ADD28R,2.000000X2.000000*%
%ADD29C,2.000000*%
%ADD30R,2.000000X3.200000*%
%ADD31C,0.650000*%
%ADD32RoundRect,0.150000X0.150000X0.575000X-0.150000X0.575000X-0.150000X-0.575000X0.150000X-0.575000X0*%
%ADD33RoundRect,0.075000X0.075000X0.650000X-0.075000X0.650000X-0.075000X-0.650000X0.075000X-0.650000X0*%
%ADD34O,1.000000X2.100000*%
%ADD35O,1.000000X1.600000*%
%ADD36RoundRect,0.225000X0.250000X-0.225000X0.250000X0.225000X-0.250000X0.225000X-0.250000X-0.225000X0*%
%ADD37RoundRect,0.250000X0.450000X0.350000X-0.450000X0.350000X-0.450000X-0.350000X0.450000X-0.350000X0*%
%ADD38C,2.200000*%
%ADD39RoundRect,0.225000X-0.250000X0.225000X-0.250000X-0.225000X0.250000X-0.225000X0.250000X0.225000X0*%
%ADD40RoundRect,0.162500X-0.162500X0.650000X-0.162500X-0.650000X0.162500X-0.650000X0.162500X0.650000X0*%
%ADD41RoundRect,0.150000X-0.512500X-0.150000X0.512500X-0.150000X0.512500X0.150000X-0.512500X0.150000X0*%
%ADD42RoundRect,0.250000X0.475000X-0.250000X0.475000X0.250000X-0.475000X0.250000X-0.475000X-0.250000X0*%
%ADD43C,1.750000*%
%ADD44C,3.987800*%
%ADD45C,3.300000*%
%ADD46C,3.048000*%
G04 APERTURE END LIST*
D10*
X71738095Y-21654819D02*
X71738095Y-22464342D01*
X71738095Y-22464342D02*
X71785714Y-22559580D01*
X71785714Y-22559580D02*
X71833333Y-22607200D01*
X71833333Y-22607200D02*
X71928571Y-22654819D01*
X71928571Y-22654819D02*
X72119047Y-22654819D01*
X72119047Y-22654819D02*
X72214285Y-22607200D01*
X72214285Y-22607200D02*
X72261904Y-22559580D01*
X72261904Y-22559580D02*
X72309523Y-22464342D01*
X72309523Y-22464342D02*
X72309523Y-21654819D01*
X72690476Y-21654819D02*
X73309523Y-21654819D01*
X73309523Y-21654819D02*
X72976190Y-22035771D01*
X72976190Y-22035771D02*
X73119047Y-22035771D01*
X73119047Y-22035771D02*
X73214285Y-22083390D01*
X73214285Y-22083390D02*
X73261904Y-22131009D01*
X73261904Y-22131009D02*
X73309523Y-22226247D01*
X73309523Y-22226247D02*
X73309523Y-22464342D01*
X73309523Y-22464342D02*
X73261904Y-22559580D01*
X73261904Y-22559580D02*
X73214285Y-22607200D01*
X73214285Y-22607200D02*
X73119047Y-22654819D01*
X73119047Y-22654819D02*
X72833333Y-22654819D01*
X72833333Y-22654819D02*
X72738095Y-22607200D01*
X72738095Y-22607200D02*
X72690476Y-22559580D01*
X83233333Y-21354819D02*
X82900000Y-20878628D01*
X82661905Y-21354819D02*
X82661905Y-20354819D01*
X82661905Y-20354819D02*
X83042857Y-20354819D01*
X83042857Y-20354819D02*
X83138095Y-20402438D01*
X83138095Y-20402438D02*
X83185714Y-20450057D01*
X83185714Y-20450057D02*
X83233333Y-20545295D01*
X83233333Y-20545295D02*
X83233333Y-20688152D01*
X83233333Y-20688152D02*
X83185714Y-20783390D01*
X83185714Y-20783390D02*
X83138095Y-20831009D01*
X83138095Y-20831009D02*
X83042857Y-20878628D01*
X83042857Y-20878628D02*
X82661905Y-20878628D01*
X84090476Y-20354819D02*
X83900000Y-20354819D01*
X83900000Y-20354819D02*
X83804762Y-20402438D01*
X83804762Y-20402438D02*
X83757143Y-20450057D01*
X83757143Y-20450057D02*
X83661905Y-20592914D01*
X83661905Y-20592914D02*
X83614286Y-20783390D01*
X83614286Y-20783390D02*
X83614286Y-21164342D01*
X83614286Y-21164342D02*
X83661905Y-21259580D01*
X83661905Y-21259580D02*
X83709524Y-21307200D01*
X83709524Y-21307200D02*
X83804762Y-21354819D01*
X83804762Y-21354819D02*
X83995238Y-21354819D01*
X83995238Y-21354819D02*
X84090476Y-21307200D01*
X84090476Y-21307200D02*
X84138095Y-21259580D01*
X84138095Y-21259580D02*
X84185714Y-21164342D01*
X84185714Y-21164342D02*
X84185714Y-20926247D01*
X84185714Y-20926247D02*
X84138095Y-20831009D01*
X84138095Y-20831009D02*
X84090476Y-20783390D01*
X84090476Y-20783390D02*
X83995238Y-20735771D01*
X83995238Y-20735771D02*
X83804762Y-20735771D01*
X83804762Y-20735771D02*
X83709524Y-20783390D01*
X83709524Y-20783390D02*
X83661905Y-20831009D01*
X83661905Y-20831009D02*
X83614286Y-20926247D01*
X62957142Y-30959580D02*
X62909523Y-31007200D01*
X62909523Y-31007200D02*
X62766666Y-31054819D01*
X62766666Y-31054819D02*
X62671428Y-31054819D01*
X62671428Y-31054819D02*
X62528571Y-31007200D01*
X62528571Y-31007200D02*
X62433333Y-30911961D01*
X62433333Y-30911961D02*
X62385714Y-30816723D01*
X62385714Y-30816723D02*
X62338095Y-30626247D01*
X62338095Y-30626247D02*
X62338095Y-30483390D01*
X62338095Y-30483390D02*
X62385714Y-30292914D01*
X62385714Y-30292914D02*
X62433333Y-30197676D01*
X62433333Y-30197676D02*
X62528571Y-30102438D01*
X62528571Y-30102438D02*
X62671428Y-30054819D01*
X62671428Y-30054819D02*
X62766666Y-30054819D01*
X62766666Y-30054819D02*
X62909523Y-30102438D01*
X62909523Y-30102438D02*
X62957142Y-30150057D01*
X63909523Y-31054819D02*
X63338095Y-31054819D01*
X63623809Y-31054819D02*
X63623809Y-30054819D01*
X63623809Y-30054819D02*
X63528571Y-30197676D01*
X63528571Y-30197676D02*
X63433333Y-30292914D01*
X63433333Y-30292914D02*
X63338095Y-30340533D01*
X64766666Y-30054819D02*
X64576190Y-30054819D01*
X64576190Y-30054819D02*
X64480952Y-30102438D01*
X64480952Y-30102438D02*
X64433333Y-30150057D01*
X64433333Y-30150057D02*
X64338095Y-30292914D01*
X64338095Y-30292914D02*
X64290476Y-30483390D01*
X64290476Y-30483390D02*
X64290476Y-30864342D01*
X64290476Y-30864342D02*
X64338095Y-30959580D01*
X64338095Y-30959580D02*
X64385714Y-31007200D01*
X64385714Y-31007200D02*
X64480952Y-31054819D01*
X64480952Y-31054819D02*
X64671428Y-31054819D01*
X64671428Y-31054819D02*
X64766666Y-31007200D01*
X64766666Y-31007200D02*
X64814285Y-30959580D01*
X64814285Y-30959580D02*
X64861904Y-30864342D01*
X64861904Y-30864342D02*
X64861904Y-30626247D01*
X64861904Y-30626247D02*
X64814285Y-30531009D01*
X64814285Y-30531009D02*
X64766666Y-30483390D01*
X64766666Y-30483390D02*
X64671428Y-30435771D01*
X64671428Y-30435771D02*
X64480952Y-30435771D01*
X64480952Y-30435771D02*
X64385714Y-30483390D01*
X64385714Y-30483390D02*
X64338095Y-30531009D01*
X64338095Y-30531009D02*
X64290476Y-30626247D01*
X100853333Y-28754819D02*
X100520000Y-28278628D01*
X100281905Y-28754819D02*
X100281905Y-27754819D01*
X100281905Y-27754819D02*
X100662857Y-27754819D01*
X100662857Y-27754819D02*
X100758095Y-27802438D01*
X100758095Y-27802438D02*
X100805714Y-27850057D01*
X100805714Y-27850057D02*
X100853333Y-27945295D01*
X100853333Y-27945295D02*
X100853333Y-28088152D01*
X100853333Y-28088152D02*
X100805714Y-28183390D01*
X100805714Y-28183390D02*
X100758095Y-28231009D01*
X100758095Y-28231009D02*
X100662857Y-28278628D01*
X100662857Y-28278628D02*
X100281905Y-28278628D01*
X101186667Y-27754819D02*
X101805714Y-27754819D01*
X101805714Y-27754819D02*
X101472381Y-28135771D01*
X101472381Y-28135771D02*
X101615238Y-28135771D01*
X101615238Y-28135771D02*
X101710476Y-28183390D01*
X101710476Y-28183390D02*
X101758095Y-28231009D01*
X101758095Y-28231009D02*
X101805714Y-28326247D01*
X101805714Y-28326247D02*
X101805714Y-28564342D01*
X101805714Y-28564342D02*
X101758095Y-28659580D01*
X101758095Y-28659580D02*
X101710476Y-28707200D01*
X101710476Y-28707200D02*
X101615238Y-28754819D01*
X101615238Y-28754819D02*
X101329524Y-28754819D01*
X101329524Y-28754819D02*
X101234286Y-28707200D01*
X101234286Y-28707200D02*
X101186667Y-28659580D01*
X83933333Y-15654819D02*
X83600000Y-15178628D01*
X83361905Y-15654819D02*
X83361905Y-14654819D01*
X83361905Y-14654819D02*
X83742857Y-14654819D01*
X83742857Y-14654819D02*
X83838095Y-14702438D01*
X83838095Y-14702438D02*
X83885714Y-14750057D01*
X83885714Y-14750057D02*
X83933333Y-14845295D01*
X83933333Y-14845295D02*
X83933333Y-14988152D01*
X83933333Y-14988152D02*
X83885714Y-15083390D01*
X83885714Y-15083390D02*
X83838095Y-15131009D01*
X83838095Y-15131009D02*
X83742857Y-15178628D01*
X83742857Y-15178628D02*
X83361905Y-15178628D01*
X84885714Y-15654819D02*
X84314286Y-15654819D01*
X84600000Y-15654819D02*
X84600000Y-14654819D01*
X84600000Y-14654819D02*
X84504762Y-14797676D01*
X84504762Y-14797676D02*
X84409524Y-14892914D01*
X84409524Y-14892914D02*
X84314286Y-14940533D01*
X64233333Y-24059580D02*
X64185714Y-24107200D01*
X64185714Y-24107200D02*
X64042857Y-24154819D01*
X64042857Y-24154819D02*
X63947619Y-24154819D01*
X63947619Y-24154819D02*
X63804762Y-24107200D01*
X63804762Y-24107200D02*
X63709524Y-24011961D01*
X63709524Y-24011961D02*
X63661905Y-23916723D01*
X63661905Y-23916723D02*
X63614286Y-23726247D01*
X63614286Y-23726247D02*
X63614286Y-23583390D01*
X63614286Y-23583390D02*
X63661905Y-23392914D01*
X63661905Y-23392914D02*
X63709524Y-23297676D01*
X63709524Y-23297676D02*
X63804762Y-23202438D01*
X63804762Y-23202438D02*
X63947619Y-23154819D01*
X63947619Y-23154819D02*
X64042857Y-23154819D01*
X64042857Y-23154819D02*
X64185714Y-23202438D01*
X64185714Y-23202438D02*
X64233333Y-23250057D01*
X65090476Y-23154819D02*
X64900000Y-23154819D01*
X64900000Y-23154819D02*
X64804762Y-23202438D01*
X64804762Y-23202438D02*
X64757143Y-23250057D01*
X64757143Y-23250057D02*
X64661905Y-23392914D01*
X64661905Y-23392914D02*
X64614286Y-23583390D01*
X64614286Y-23583390D02*
X64614286Y-23964342D01*
X64614286Y-23964342D02*
X64661905Y-24059580D01*
X64661905Y-24059580D02*
X64709524Y-24107200D01*
X64709524Y-24107200D02*
X64804762Y-24154819D01*
X64804762Y-24154819D02*
X64995238Y-24154819D01*
X64995238Y-24154819D02*
X65090476Y-24107200D01*
X65090476Y-24107200D02*
X65138095Y-24059580D01*
X65138095Y-24059580D02*
X65185714Y-23964342D01*
X65185714Y-23964342D02*
X65185714Y-23726247D01*
X65185714Y-23726247D02*
X65138095Y-23631009D01*
X65138095Y-23631009D02*
X65090476Y-23583390D01*
X65090476Y-23583390D02*
X64995238Y-23535771D01*
X64995238Y-23535771D02*
X64804762Y-23535771D01*
X64804762Y-23535771D02*
X64709524Y-23583390D01*
X64709524Y-23583390D02*
X64661905Y-23631009D01*
X64661905Y-23631009D02*
X64614286Y-23726247D01*
X49666666Y-5534819D02*
X49666666Y-6249104D01*
X49666666Y-6249104D02*
X49619047Y-6391961D01*
X49619047Y-6391961D02*
X49523809Y-6487200D01*
X49523809Y-6487200D02*
X49380952Y-6534819D01*
X49380952Y-6534819D02*
X49285714Y-6534819D01*
X50095238Y-5630057D02*
X50142857Y-5582438D01*
X50142857Y-5582438D02*
X50238095Y-5534819D01*
X50238095Y-5534819D02*
X50476190Y-5534819D01*
X50476190Y-5534819D02*
X50571428Y-5582438D01*
X50571428Y-5582438D02*
X50619047Y-5630057D01*
X50619047Y-5630057D02*
X50666666Y-5725295D01*
X50666666Y-5725295D02*
X50666666Y-5820533D01*
X50666666Y-5820533D02*
X50619047Y-5963390D01*
X50619047Y-5963390D02*
X50047619Y-6534819D01*
X50047619Y-6534819D02*
X50666666Y-6534819D01*
X65238095Y-5954819D02*
X65238095Y-6764342D01*
X65238095Y-6764342D02*
X65285714Y-6859580D01*
X65285714Y-6859580D02*
X65333333Y-6907200D01*
X65333333Y-6907200D02*
X65428571Y-6954819D01*
X65428571Y-6954819D02*
X65619047Y-6954819D01*
X65619047Y-6954819D02*
X65714285Y-6907200D01*
X65714285Y-6907200D02*
X65761904Y-6859580D01*
X65761904Y-6859580D02*
X65809523Y-6764342D01*
X65809523Y-6764342D02*
X65809523Y-5954819D01*
X66809523Y-6954819D02*
X66238095Y-6954819D01*
X66523809Y-6954819D02*
X66523809Y-5954819D01*
X66523809Y-5954819D02*
X66428571Y-6097676D01*
X66428571Y-6097676D02*
X66333333Y-6192914D01*
X66333333Y-6192914D02*
X66238095Y-6240533D01*
X120185714Y-24054819D02*
X120185714Y-23054819D01*
X120185714Y-23054819D02*
X120423809Y-23054819D01*
X120423809Y-23054819D02*
X120566666Y-23102438D01*
X120566666Y-23102438D02*
X120661904Y-23197676D01*
X120661904Y-23197676D02*
X120709523Y-23292914D01*
X120709523Y-23292914D02*
X120757142Y-23483390D01*
X120757142Y-23483390D02*
X120757142Y-23626247D01*
X120757142Y-23626247D02*
X120709523Y-23816723D01*
X120709523Y-23816723D02*
X120661904Y-23911961D01*
X120661904Y-23911961D02*
X120566666Y-24007200D01*
X120566666Y-24007200D02*
X120423809Y-24054819D01*
X120423809Y-24054819D02*
X120185714Y-24054819D01*
X121709523Y-24054819D02*
X121138095Y-24054819D01*
X121423809Y-24054819D02*
X121423809Y-23054819D01*
X121423809Y-23054819D02*
X121328571Y-23197676D01*
X121328571Y-23197676D02*
X121233333Y-23292914D01*
X121233333Y-23292914D02*
X121138095Y-23340533D01*
X122280952Y-23483390D02*
X122185714Y-23435771D01*
X122185714Y-23435771D02*
X122138095Y-23388152D01*
X122138095Y-23388152D02*
X122090476Y-23292914D01*
X122090476Y-23292914D02*
X122090476Y-23245295D01*
X122090476Y-23245295D02*
X122138095Y-23150057D01*
X122138095Y-23150057D02*
X122185714Y-23102438D01*
X122185714Y-23102438D02*
X122280952Y-23054819D01*
X122280952Y-23054819D02*
X122471428Y-23054819D01*
X122471428Y-23054819D02*
X122566666Y-23102438D01*
X122566666Y-23102438D02*
X122614285Y-23150057D01*
X122614285Y-23150057D02*
X122661904Y-23245295D01*
X122661904Y-23245295D02*
X122661904Y-23292914D01*
X122661904Y-23292914D02*
X122614285Y-23388152D01*
X122614285Y-23388152D02*
X122566666Y-23435771D01*
X122566666Y-23435771D02*
X122471428Y-23483390D01*
X122471428Y-23483390D02*
X122280952Y-23483390D01*
X122280952Y-23483390D02*
X122185714Y-23531009D01*
X122185714Y-23531009D02*
X122138095Y-23578628D01*
X122138095Y-23578628D02*
X122090476Y-23673866D01*
X122090476Y-23673866D02*
X122090476Y-23864342D01*
X122090476Y-23864342D02*
X122138095Y-23959580D01*
X122138095Y-23959580D02*
X122185714Y-24007200D01*
X122185714Y-24007200D02*
X122280952Y-24054819D01*
X122280952Y-24054819D02*
X122471428Y-24054819D01*
X122471428Y-24054819D02*
X122566666Y-24007200D01*
X122566666Y-24007200D02*
X122614285Y-23959580D01*
X122614285Y-23959580D02*
X122661904Y-23864342D01*
X122661904Y-23864342D02*
X122661904Y-23673866D01*
X122661904Y-23673866D02*
X122614285Y-23578628D01*
X122614285Y-23578628D02*
X122566666Y-23531009D01*
X122566666Y-23531009D02*
X122471428Y-23483390D01*
X79333333Y-10454819D02*
X79000000Y-9978628D01*
X78761905Y-10454819D02*
X78761905Y-9454819D01*
X78761905Y-9454819D02*
X79142857Y-9454819D01*
X79142857Y-9454819D02*
X79238095Y-9502438D01*
X79238095Y-9502438D02*
X79285714Y-9550057D01*
X79285714Y-9550057D02*
X79333333Y-9645295D01*
X79333333Y-9645295D02*
X79333333Y-9788152D01*
X79333333Y-9788152D02*
X79285714Y-9883390D01*
X79285714Y-9883390D02*
X79238095Y-9931009D01*
X79238095Y-9931009D02*
X79142857Y-9978628D01*
X79142857Y-9978628D02*
X78761905Y-9978628D01*
X80190476Y-9788152D02*
X80190476Y-10454819D01*
X79952381Y-9407200D02*
X79714286Y-10121485D01*
X79714286Y-10121485D02*
X80333333Y-10121485D01*
X78733333Y-21259580D02*
X78685714Y-21307200D01*
X78685714Y-21307200D02*
X78542857Y-21354819D01*
X78542857Y-21354819D02*
X78447619Y-21354819D01*
X78447619Y-21354819D02*
X78304762Y-21307200D01*
X78304762Y-21307200D02*
X78209524Y-21211961D01*
X78209524Y-21211961D02*
X78161905Y-21116723D01*
X78161905Y-21116723D02*
X78114286Y-20926247D01*
X78114286Y-20926247D02*
X78114286Y-20783390D01*
X78114286Y-20783390D02*
X78161905Y-20592914D01*
X78161905Y-20592914D02*
X78209524Y-20497676D01*
X78209524Y-20497676D02*
X78304762Y-20402438D01*
X78304762Y-20402438D02*
X78447619Y-20354819D01*
X78447619Y-20354819D02*
X78542857Y-20354819D01*
X78542857Y-20354819D02*
X78685714Y-20402438D01*
X78685714Y-20402438D02*
X78733333Y-20450057D01*
X79638095Y-20354819D02*
X79161905Y-20354819D01*
X79161905Y-20354819D02*
X79114286Y-20831009D01*
X79114286Y-20831009D02*
X79161905Y-20783390D01*
X79161905Y-20783390D02*
X79257143Y-20735771D01*
X79257143Y-20735771D02*
X79495238Y-20735771D01*
X79495238Y-20735771D02*
X79590476Y-20783390D01*
X79590476Y-20783390D02*
X79638095Y-20831009D01*
X79638095Y-20831009D02*
X79685714Y-20926247D01*
X79685714Y-20926247D02*
X79685714Y-21164342D01*
X79685714Y-21164342D02*
X79638095Y-21259580D01*
X79638095Y-21259580D02*
X79590476Y-21307200D01*
X79590476Y-21307200D02*
X79495238Y-21354819D01*
X79495238Y-21354819D02*
X79257143Y-21354819D01*
X79257143Y-21354819D02*
X79161905Y-21307200D01*
X79161905Y-21307200D02*
X79114286Y-21259580D01*
X81833333Y-22959580D02*
X81785714Y-23007200D01*
X81785714Y-23007200D02*
X81642857Y-23054819D01*
X81642857Y-23054819D02*
X81547619Y-23054819D01*
X81547619Y-23054819D02*
X81404762Y-23007200D01*
X81404762Y-23007200D02*
X81309524Y-22911961D01*
X81309524Y-22911961D02*
X81261905Y-22816723D01*
X81261905Y-22816723D02*
X81214286Y-22626247D01*
X81214286Y-22626247D02*
X81214286Y-22483390D01*
X81214286Y-22483390D02*
X81261905Y-22292914D01*
X81261905Y-22292914D02*
X81309524Y-22197676D01*
X81309524Y-22197676D02*
X81404762Y-22102438D01*
X81404762Y-22102438D02*
X81547619Y-22054819D01*
X81547619Y-22054819D02*
X81642857Y-22054819D01*
X81642857Y-22054819D02*
X81785714Y-22102438D01*
X81785714Y-22102438D02*
X81833333Y-22150057D01*
X82404762Y-22483390D02*
X82309524Y-22435771D01*
X82309524Y-22435771D02*
X82261905Y-22388152D01*
X82261905Y-22388152D02*
X82214286Y-22292914D01*
X82214286Y-22292914D02*
X82214286Y-22245295D01*
X82214286Y-22245295D02*
X82261905Y-22150057D01*
X82261905Y-22150057D02*
X82309524Y-22102438D01*
X82309524Y-22102438D02*
X82404762Y-22054819D01*
X82404762Y-22054819D02*
X82595238Y-22054819D01*
X82595238Y-22054819D02*
X82690476Y-22102438D01*
X82690476Y-22102438D02*
X82738095Y-22150057D01*
X82738095Y-22150057D02*
X82785714Y-22245295D01*
X82785714Y-22245295D02*
X82785714Y-22292914D01*
X82785714Y-22292914D02*
X82738095Y-22388152D01*
X82738095Y-22388152D02*
X82690476Y-22435771D01*
X82690476Y-22435771D02*
X82595238Y-22483390D01*
X82595238Y-22483390D02*
X82404762Y-22483390D01*
X82404762Y-22483390D02*
X82309524Y-22531009D01*
X82309524Y-22531009D02*
X82261905Y-22578628D01*
X82261905Y-22578628D02*
X82214286Y-22673866D01*
X82214286Y-22673866D02*
X82214286Y-22864342D01*
X82214286Y-22864342D02*
X82261905Y-22959580D01*
X82261905Y-22959580D02*
X82309524Y-23007200D01*
X82309524Y-23007200D02*
X82404762Y-23054819D01*
X82404762Y-23054819D02*
X82595238Y-23054819D01*
X82595238Y-23054819D02*
X82690476Y-23007200D01*
X82690476Y-23007200D02*
X82738095Y-22959580D01*
X82738095Y-22959580D02*
X82785714Y-22864342D01*
X82785714Y-22864342D02*
X82785714Y-22673866D01*
X82785714Y-22673866D02*
X82738095Y-22578628D01*
X82738095Y-22578628D02*
X82690476Y-22531009D01*
X82690476Y-22531009D02*
X82595238Y-22483390D01*
X49666666Y-15074819D02*
X49666666Y-15789104D01*
X49666666Y-15789104D02*
X49619047Y-15931961D01*
X49619047Y-15931961D02*
X49523809Y-16027200D01*
X49523809Y-16027200D02*
X49380952Y-16074819D01*
X49380952Y-16074819D02*
X49285714Y-16074819D01*
X50047619Y-15074819D02*
X50666666Y-15074819D01*
X50666666Y-15074819D02*
X50333333Y-15455771D01*
X50333333Y-15455771D02*
X50476190Y-15455771D01*
X50476190Y-15455771D02*
X50571428Y-15503390D01*
X50571428Y-15503390D02*
X50619047Y-15551009D01*
X50619047Y-15551009D02*
X50666666Y-15646247D01*
X50666666Y-15646247D02*
X50666666Y-15884342D01*
X50666666Y-15884342D02*
X50619047Y-15979580D01*
X50619047Y-15979580D02*
X50571428Y-16027200D01*
X50571428Y-16027200D02*
X50476190Y-16074819D01*
X50476190Y-16074819D02*
X50190476Y-16074819D01*
X50190476Y-16074819D02*
X50095238Y-16027200D01*
X50095238Y-16027200D02*
X50047619Y-15979580D01*
X58757142Y-18159580D02*
X58709523Y-18207200D01*
X58709523Y-18207200D02*
X58566666Y-18254819D01*
X58566666Y-18254819D02*
X58471428Y-18254819D01*
X58471428Y-18254819D02*
X58328571Y-18207200D01*
X58328571Y-18207200D02*
X58233333Y-18111961D01*
X58233333Y-18111961D02*
X58185714Y-18016723D01*
X58185714Y-18016723D02*
X58138095Y-17826247D01*
X58138095Y-17826247D02*
X58138095Y-17683390D01*
X58138095Y-17683390D02*
X58185714Y-17492914D01*
X58185714Y-17492914D02*
X58233333Y-17397676D01*
X58233333Y-17397676D02*
X58328571Y-17302438D01*
X58328571Y-17302438D02*
X58471428Y-17254819D01*
X58471428Y-17254819D02*
X58566666Y-17254819D01*
X58566666Y-17254819D02*
X58709523Y-17302438D01*
X58709523Y-17302438D02*
X58757142Y-17350057D01*
X59709523Y-18254819D02*
X59138095Y-18254819D01*
X59423809Y-18254819D02*
X59423809Y-17254819D01*
X59423809Y-17254819D02*
X59328571Y-17397676D01*
X59328571Y-17397676D02*
X59233333Y-17492914D01*
X59233333Y-17492914D02*
X59138095Y-17540533D01*
X60566666Y-17588152D02*
X60566666Y-18254819D01*
X60328571Y-17207200D02*
X60090476Y-17921485D01*
X60090476Y-17921485D02*
X60709523Y-17921485D01*
X59633333Y-20059580D02*
X59585714Y-20107200D01*
X59585714Y-20107200D02*
X59442857Y-20154819D01*
X59442857Y-20154819D02*
X59347619Y-20154819D01*
X59347619Y-20154819D02*
X59204762Y-20107200D01*
X59204762Y-20107200D02*
X59109524Y-20011961D01*
X59109524Y-20011961D02*
X59061905Y-19916723D01*
X59061905Y-19916723D02*
X59014286Y-19726247D01*
X59014286Y-19726247D02*
X59014286Y-19583390D01*
X59014286Y-19583390D02*
X59061905Y-19392914D01*
X59061905Y-19392914D02*
X59109524Y-19297676D01*
X59109524Y-19297676D02*
X59204762Y-19202438D01*
X59204762Y-19202438D02*
X59347619Y-19154819D01*
X59347619Y-19154819D02*
X59442857Y-19154819D01*
X59442857Y-19154819D02*
X59585714Y-19202438D01*
X59585714Y-19202438D02*
X59633333Y-19250057D01*
X60014286Y-19250057D02*
X60061905Y-19202438D01*
X60061905Y-19202438D02*
X60157143Y-19154819D01*
X60157143Y-19154819D02*
X60395238Y-19154819D01*
X60395238Y-19154819D02*
X60490476Y-19202438D01*
X60490476Y-19202438D02*
X60538095Y-19250057D01*
X60538095Y-19250057D02*
X60585714Y-19345295D01*
X60585714Y-19345295D02*
X60585714Y-19440533D01*
X60585714Y-19440533D02*
X60538095Y-19583390D01*
X60538095Y-19583390D02*
X59966667Y-20154819D01*
X59966667Y-20154819D02*
X60585714Y-20154819D01*
X99686667Y-18357200D02*
X99829524Y-18404819D01*
X99829524Y-18404819D02*
X100067619Y-18404819D01*
X100067619Y-18404819D02*
X100162857Y-18357200D01*
X100162857Y-18357200D02*
X100210476Y-18309580D01*
X100210476Y-18309580D02*
X100258095Y-18214342D01*
X100258095Y-18214342D02*
X100258095Y-18119104D01*
X100258095Y-18119104D02*
X100210476Y-18023866D01*
X100210476Y-18023866D02*
X100162857Y-17976247D01*
X100162857Y-17976247D02*
X100067619Y-17928628D01*
X100067619Y-17928628D02*
X99877143Y-17881009D01*
X99877143Y-17881009D02*
X99781905Y-17833390D01*
X99781905Y-17833390D02*
X99734286Y-17785771D01*
X99734286Y-17785771D02*
X99686667Y-17690533D01*
X99686667Y-17690533D02*
X99686667Y-17595295D01*
X99686667Y-17595295D02*
X99734286Y-17500057D01*
X99734286Y-17500057D02*
X99781905Y-17452438D01*
X99781905Y-17452438D02*
X99877143Y-17404819D01*
X99877143Y-17404819D02*
X100115238Y-17404819D01*
X100115238Y-17404819D02*
X100258095Y-17452438D01*
X100591429Y-17404819D02*
X100829524Y-18404819D01*
X100829524Y-18404819D02*
X101020000Y-17690533D01*
X101020000Y-17690533D02*
X101210476Y-18404819D01*
X101210476Y-18404819D02*
X101448572Y-17404819D01*
X101781905Y-17500057D02*
X101829524Y-17452438D01*
X101829524Y-17452438D02*
X101924762Y-17404819D01*
X101924762Y-17404819D02*
X102162857Y-17404819D01*
X102162857Y-17404819D02*
X102258095Y-17452438D01*
X102258095Y-17452438D02*
X102305714Y-17500057D01*
X102305714Y-17500057D02*
X102353333Y-17595295D01*
X102353333Y-17595295D02*
X102353333Y-17690533D01*
X102353333Y-17690533D02*
X102305714Y-17833390D01*
X102305714Y-17833390D02*
X101734286Y-18404819D01*
X101734286Y-18404819D02*
X102353333Y-18404819D01*
X112366667Y-10507200D02*
X112509524Y-10554819D01*
X112509524Y-10554819D02*
X112747619Y-10554819D01*
X112747619Y-10554819D02*
X112842857Y-10507200D01*
X112842857Y-10507200D02*
X112890476Y-10459580D01*
X112890476Y-10459580D02*
X112938095Y-10364342D01*
X112938095Y-10364342D02*
X112938095Y-10269104D01*
X112938095Y-10269104D02*
X112890476Y-10173866D01*
X112890476Y-10173866D02*
X112842857Y-10126247D01*
X112842857Y-10126247D02*
X112747619Y-10078628D01*
X112747619Y-10078628D02*
X112557143Y-10031009D01*
X112557143Y-10031009D02*
X112461905Y-9983390D01*
X112461905Y-9983390D02*
X112414286Y-9935771D01*
X112414286Y-9935771D02*
X112366667Y-9840533D01*
X112366667Y-9840533D02*
X112366667Y-9745295D01*
X112366667Y-9745295D02*
X112414286Y-9650057D01*
X112414286Y-9650057D02*
X112461905Y-9602438D01*
X112461905Y-9602438D02*
X112557143Y-9554819D01*
X112557143Y-9554819D02*
X112795238Y-9554819D01*
X112795238Y-9554819D02*
X112938095Y-9602438D01*
X113271429Y-9554819D02*
X113509524Y-10554819D01*
X113509524Y-10554819D02*
X113700000Y-9840533D01*
X113700000Y-9840533D02*
X113890476Y-10554819D01*
X113890476Y-10554819D02*
X114128572Y-9554819D01*
X114414286Y-9554819D02*
X115033333Y-9554819D01*
X115033333Y-9554819D02*
X114700000Y-9935771D01*
X114700000Y-9935771D02*
X114842857Y-9935771D01*
X114842857Y-9935771D02*
X114938095Y-9983390D01*
X114938095Y-9983390D02*
X114985714Y-10031009D01*
X114985714Y-10031009D02*
X115033333Y-10126247D01*
X115033333Y-10126247D02*
X115033333Y-10364342D01*
X115033333Y-10364342D02*
X114985714Y-10459580D01*
X114985714Y-10459580D02*
X114938095Y-10507200D01*
X114938095Y-10507200D02*
X114842857Y-10554819D01*
X114842857Y-10554819D02*
X114557143Y-10554819D01*
X114557143Y-10554819D02*
X114461905Y-10507200D01*
X114461905Y-10507200D02*
X114414286Y-10459580D01*
X99706667Y-6607200D02*
X99849524Y-6654819D01*
X99849524Y-6654819D02*
X100087619Y-6654819D01*
X100087619Y-6654819D02*
X100182857Y-6607200D01*
X100182857Y-6607200D02*
X100230476Y-6559580D01*
X100230476Y-6559580D02*
X100278095Y-6464342D01*
X100278095Y-6464342D02*
X100278095Y-6369104D01*
X100278095Y-6369104D02*
X100230476Y-6273866D01*
X100230476Y-6273866D02*
X100182857Y-6226247D01*
X100182857Y-6226247D02*
X100087619Y-6178628D01*
X100087619Y-6178628D02*
X99897143Y-6131009D01*
X99897143Y-6131009D02*
X99801905Y-6083390D01*
X99801905Y-6083390D02*
X99754286Y-6035771D01*
X99754286Y-6035771D02*
X99706667Y-5940533D01*
X99706667Y-5940533D02*
X99706667Y-5845295D01*
X99706667Y-5845295D02*
X99754286Y-5750057D01*
X99754286Y-5750057D02*
X99801905Y-5702438D01*
X99801905Y-5702438D02*
X99897143Y-5654819D01*
X99897143Y-5654819D02*
X100135238Y-5654819D01*
X100135238Y-5654819D02*
X100278095Y-5702438D01*
X100611429Y-5654819D02*
X100849524Y-6654819D01*
X100849524Y-6654819D02*
X101040000Y-5940533D01*
X101040000Y-5940533D02*
X101230476Y-6654819D01*
X101230476Y-6654819D02*
X101468572Y-5654819D01*
X102373333Y-6654819D02*
X101801905Y-6654819D01*
X102087619Y-6654819D02*
X102087619Y-5654819D01*
X102087619Y-5654819D02*
X101992381Y-5797676D01*
X101992381Y-5797676D02*
X101897143Y-5892914D01*
X101897143Y-5892914D02*
X101801905Y-5940533D01*
X94366666Y-5654819D02*
X94366666Y-6369104D01*
X94366666Y-6369104D02*
X94319047Y-6511961D01*
X94319047Y-6511961D02*
X94223809Y-6607200D01*
X94223809Y-6607200D02*
X94080952Y-6654819D01*
X94080952Y-6654819D02*
X93985714Y-6654819D01*
X95366666Y-6654819D02*
X94795238Y-6654819D01*
X95080952Y-6654819D02*
X95080952Y-5654819D01*
X95080952Y-5654819D02*
X94985714Y-5797676D01*
X94985714Y-5797676D02*
X94890476Y-5892914D01*
X94890476Y-5892914D02*
X94795238Y-5940533D01*
X70033333Y-17359580D02*
X69985714Y-17407200D01*
X69985714Y-17407200D02*
X69842857Y-17454819D01*
X69842857Y-17454819D02*
X69747619Y-17454819D01*
X69747619Y-17454819D02*
X69604762Y-17407200D01*
X69604762Y-17407200D02*
X69509524Y-17311961D01*
X69509524Y-17311961D02*
X69461905Y-17216723D01*
X69461905Y-17216723D02*
X69414286Y-17026247D01*
X69414286Y-17026247D02*
X69414286Y-16883390D01*
X69414286Y-16883390D02*
X69461905Y-16692914D01*
X69461905Y-16692914D02*
X69509524Y-16597676D01*
X69509524Y-16597676D02*
X69604762Y-16502438D01*
X69604762Y-16502438D02*
X69747619Y-16454819D01*
X69747619Y-16454819D02*
X69842857Y-16454819D01*
X69842857Y-16454819D02*
X69985714Y-16502438D01*
X69985714Y-16502438D02*
X70033333Y-16550057D01*
X70890476Y-16788152D02*
X70890476Y-17454819D01*
X70652381Y-16407200D02*
X70414286Y-17121485D01*
X70414286Y-17121485D02*
X71033333Y-17121485D01*
X83233333Y-17354819D02*
X82900000Y-16878628D01*
X82661905Y-17354819D02*
X82661905Y-16354819D01*
X82661905Y-16354819D02*
X83042857Y-16354819D01*
X83042857Y-16354819D02*
X83138095Y-16402438D01*
X83138095Y-16402438D02*
X83185714Y-16450057D01*
X83185714Y-16450057D02*
X83233333Y-16545295D01*
X83233333Y-16545295D02*
X83233333Y-16688152D01*
X83233333Y-16688152D02*
X83185714Y-16783390D01*
X83185714Y-16783390D02*
X83138095Y-16831009D01*
X83138095Y-16831009D02*
X83042857Y-16878628D01*
X83042857Y-16878628D02*
X82661905Y-16878628D01*
X83566667Y-16354819D02*
X84233333Y-16354819D01*
X84233333Y-16354819D02*
X83804762Y-17354819D01*
X63323809Y-27878628D02*
X63323809Y-28354819D01*
X62990476Y-27354819D02*
X63323809Y-27878628D01*
X63323809Y-27878628D02*
X63657142Y-27354819D01*
X64514285Y-28354819D02*
X63942857Y-28354819D01*
X64228571Y-28354819D02*
X64228571Y-27354819D01*
X64228571Y-27354819D02*
X64133333Y-27497676D01*
X64133333Y-27497676D02*
X64038095Y-27592914D01*
X64038095Y-27592914D02*
X63942857Y-27640533D01*
X79333333Y-6554819D02*
X79000000Y-6078628D01*
X78761905Y-6554819D02*
X78761905Y-5554819D01*
X78761905Y-5554819D02*
X79142857Y-5554819D01*
X79142857Y-5554819D02*
X79238095Y-5602438D01*
X79238095Y-5602438D02*
X79285714Y-5650057D01*
X79285714Y-5650057D02*
X79333333Y-5745295D01*
X79333333Y-5745295D02*
X79333333Y-5888152D01*
X79333333Y-5888152D02*
X79285714Y-5983390D01*
X79285714Y-5983390D02*
X79238095Y-6031009D01*
X79238095Y-6031009D02*
X79142857Y-6078628D01*
X79142857Y-6078628D02*
X78761905Y-6078628D01*
X80238095Y-5554819D02*
X79761905Y-5554819D01*
X79761905Y-5554819D02*
X79714286Y-6031009D01*
X79714286Y-6031009D02*
X79761905Y-5983390D01*
X79761905Y-5983390D02*
X79857143Y-5935771D01*
X79857143Y-5935771D02*
X80095238Y-5935771D01*
X80095238Y-5935771D02*
X80190476Y-5983390D01*
X80190476Y-5983390D02*
X80238095Y-6031009D01*
X80238095Y-6031009D02*
X80285714Y-6126247D01*
X80285714Y-6126247D02*
X80285714Y-6364342D01*
X80285714Y-6364342D02*
X80238095Y-6459580D01*
X80238095Y-6459580D02*
X80190476Y-6507200D01*
X80190476Y-6507200D02*
X80095238Y-6554819D01*
X80095238Y-6554819D02*
X79857143Y-6554819D01*
X79857143Y-6554819D02*
X79761905Y-6507200D01*
X79761905Y-6507200D02*
X79714286Y-6459580D01*
X71333333Y-32954819D02*
X71000000Y-32478628D01*
X70761905Y-32954819D02*
X70761905Y-31954819D01*
X70761905Y-31954819D02*
X71142857Y-31954819D01*
X71142857Y-31954819D02*
X71238095Y-32002438D01*
X71238095Y-32002438D02*
X71285714Y-32050057D01*
X71285714Y-32050057D02*
X71333333Y-32145295D01*
X71333333Y-32145295D02*
X71333333Y-32288152D01*
X71333333Y-32288152D02*
X71285714Y-32383390D01*
X71285714Y-32383390D02*
X71238095Y-32431009D01*
X71238095Y-32431009D02*
X71142857Y-32478628D01*
X71142857Y-32478628D02*
X70761905Y-32478628D01*
X71904762Y-32383390D02*
X71809524Y-32335771D01*
X71809524Y-32335771D02*
X71761905Y-32288152D01*
X71761905Y-32288152D02*
X71714286Y-32192914D01*
X71714286Y-32192914D02*
X71714286Y-32145295D01*
X71714286Y-32145295D02*
X71761905Y-32050057D01*
X71761905Y-32050057D02*
X71809524Y-32002438D01*
X71809524Y-32002438D02*
X71904762Y-31954819D01*
X71904762Y-31954819D02*
X72095238Y-31954819D01*
X72095238Y-31954819D02*
X72190476Y-32002438D01*
X72190476Y-32002438D02*
X72238095Y-32050057D01*
X72238095Y-32050057D02*
X72285714Y-32145295D01*
X72285714Y-32145295D02*
X72285714Y-32192914D01*
X72285714Y-32192914D02*
X72238095Y-32288152D01*
X72238095Y-32288152D02*
X72190476Y-32335771D01*
X72190476Y-32335771D02*
X72095238Y-32383390D01*
X72095238Y-32383390D02*
X71904762Y-32383390D01*
X71904762Y-32383390D02*
X71809524Y-32431009D01*
X71809524Y-32431009D02*
X71761905Y-32478628D01*
X71761905Y-32478628D02*
X71714286Y-32573866D01*
X71714286Y-32573866D02*
X71714286Y-32764342D01*
X71714286Y-32764342D02*
X71761905Y-32859580D01*
X71761905Y-32859580D02*
X71809524Y-32907200D01*
X71809524Y-32907200D02*
X71904762Y-32954819D01*
X71904762Y-32954819D02*
X72095238Y-32954819D01*
X72095238Y-32954819D02*
X72190476Y-32907200D01*
X72190476Y-32907200D02*
X72238095Y-32859580D01*
X72238095Y-32859580D02*
X72285714Y-32764342D01*
X72285714Y-32764342D02*
X72285714Y-32573866D01*
X72285714Y-32573866D02*
X72238095Y-32478628D01*
X72238095Y-32478628D02*
X72190476Y-32431009D01*
X72190476Y-32431009D02*
X72095238Y-32383390D01*
X81833333Y-24959580D02*
X81785714Y-25007200D01*
X81785714Y-25007200D02*
X81642857Y-25054819D01*
X81642857Y-25054819D02*
X81547619Y-25054819D01*
X81547619Y-25054819D02*
X81404762Y-25007200D01*
X81404762Y-25007200D02*
X81309524Y-24911961D01*
X81309524Y-24911961D02*
X81261905Y-24816723D01*
X81261905Y-24816723D02*
X81214286Y-24626247D01*
X81214286Y-24626247D02*
X81214286Y-24483390D01*
X81214286Y-24483390D02*
X81261905Y-24292914D01*
X81261905Y-24292914D02*
X81309524Y-24197676D01*
X81309524Y-24197676D02*
X81404762Y-24102438D01*
X81404762Y-24102438D02*
X81547619Y-24054819D01*
X81547619Y-24054819D02*
X81642857Y-24054819D01*
X81642857Y-24054819D02*
X81785714Y-24102438D01*
X81785714Y-24102438D02*
X81833333Y-24150057D01*
X82309524Y-25054819D02*
X82500000Y-25054819D01*
X82500000Y-25054819D02*
X82595238Y-25007200D01*
X82595238Y-25007200D02*
X82642857Y-24959580D01*
X82642857Y-24959580D02*
X82738095Y-24816723D01*
X82738095Y-24816723D02*
X82785714Y-24626247D01*
X82785714Y-24626247D02*
X82785714Y-24245295D01*
X82785714Y-24245295D02*
X82738095Y-24150057D01*
X82738095Y-24150057D02*
X82690476Y-24102438D01*
X82690476Y-24102438D02*
X82595238Y-24054819D01*
X82595238Y-24054819D02*
X82404762Y-24054819D01*
X82404762Y-24054819D02*
X82309524Y-24102438D01*
X82309524Y-24102438D02*
X82261905Y-24150057D01*
X82261905Y-24150057D02*
X82214286Y-24245295D01*
X82214286Y-24245295D02*
X82214286Y-24483390D01*
X82214286Y-24483390D02*
X82261905Y-24578628D01*
X82261905Y-24578628D02*
X82309524Y-24626247D01*
X82309524Y-24626247D02*
X82404762Y-24673866D01*
X82404762Y-24673866D02*
X82595238Y-24673866D01*
X82595238Y-24673866D02*
X82690476Y-24626247D01*
X82690476Y-24626247D02*
X82738095Y-24578628D01*
X82738095Y-24578628D02*
X82785714Y-24483390D01*
X73633333Y-33159580D02*
X73585714Y-33207200D01*
X73585714Y-33207200D02*
X73442857Y-33254819D01*
X73442857Y-33254819D02*
X73347619Y-33254819D01*
X73347619Y-33254819D02*
X73204762Y-33207200D01*
X73204762Y-33207200D02*
X73109524Y-33111961D01*
X73109524Y-33111961D02*
X73061905Y-33016723D01*
X73061905Y-33016723D02*
X73014286Y-32826247D01*
X73014286Y-32826247D02*
X73014286Y-32683390D01*
X73014286Y-32683390D02*
X73061905Y-32492914D01*
X73061905Y-32492914D02*
X73109524Y-32397676D01*
X73109524Y-32397676D02*
X73204762Y-32302438D01*
X73204762Y-32302438D02*
X73347619Y-32254819D01*
X73347619Y-32254819D02*
X73442857Y-32254819D01*
X73442857Y-32254819D02*
X73585714Y-32302438D01*
X73585714Y-32302438D02*
X73633333Y-32350057D01*
X73966667Y-32254819D02*
X74633333Y-32254819D01*
X74633333Y-32254819D02*
X74204762Y-33254819D01*
X77743095Y-11154819D02*
X77743095Y-11964342D01*
X77743095Y-11964342D02*
X77790714Y-12059580D01*
X77790714Y-12059580D02*
X77838333Y-12107200D01*
X77838333Y-12107200D02*
X77933571Y-12154819D01*
X77933571Y-12154819D02*
X78124047Y-12154819D01*
X78124047Y-12154819D02*
X78219285Y-12107200D01*
X78219285Y-12107200D02*
X78266904Y-12059580D01*
X78266904Y-12059580D02*
X78314523Y-11964342D01*
X78314523Y-11964342D02*
X78314523Y-11154819D01*
X79219285Y-11488152D02*
X79219285Y-12154819D01*
X78981190Y-11107200D02*
X78743095Y-11821485D01*
X78743095Y-11821485D02*
X79362142Y-11821485D01*
X63257142Y-25759580D02*
X63209523Y-25807200D01*
X63209523Y-25807200D02*
X63066666Y-25854819D01*
X63066666Y-25854819D02*
X62971428Y-25854819D01*
X62971428Y-25854819D02*
X62828571Y-25807200D01*
X62828571Y-25807200D02*
X62733333Y-25711961D01*
X62733333Y-25711961D02*
X62685714Y-25616723D01*
X62685714Y-25616723D02*
X62638095Y-25426247D01*
X62638095Y-25426247D02*
X62638095Y-25283390D01*
X62638095Y-25283390D02*
X62685714Y-25092914D01*
X62685714Y-25092914D02*
X62733333Y-24997676D01*
X62733333Y-24997676D02*
X62828571Y-24902438D01*
X62828571Y-24902438D02*
X62971428Y-24854819D01*
X62971428Y-24854819D02*
X63066666Y-24854819D01*
X63066666Y-24854819D02*
X63209523Y-24902438D01*
X63209523Y-24902438D02*
X63257142Y-24950057D01*
X64209523Y-25854819D02*
X63638095Y-25854819D01*
X63923809Y-25854819D02*
X63923809Y-24854819D01*
X63923809Y-24854819D02*
X63828571Y-24997676D01*
X63828571Y-24997676D02*
X63733333Y-25092914D01*
X63733333Y-25092914D02*
X63638095Y-25140533D01*
X65114285Y-24854819D02*
X64638095Y-24854819D01*
X64638095Y-24854819D02*
X64590476Y-25331009D01*
X64590476Y-25331009D02*
X64638095Y-25283390D01*
X64638095Y-25283390D02*
X64733333Y-25235771D01*
X64733333Y-25235771D02*
X64971428Y-25235771D01*
X64971428Y-25235771D02*
X65066666Y-25283390D01*
X65066666Y-25283390D02*
X65114285Y-25331009D01*
X65114285Y-25331009D02*
X65161904Y-25426247D01*
X65161904Y-25426247D02*
X65161904Y-25664342D01*
X65161904Y-25664342D02*
X65114285Y-25759580D01*
X65114285Y-25759580D02*
X65066666Y-25807200D01*
X65066666Y-25807200D02*
X64971428Y-25854819D01*
X64971428Y-25854819D02*
X64733333Y-25854819D01*
X64733333Y-25854819D02*
X64638095Y-25807200D01*
X64638095Y-25807200D02*
X64590476Y-25759580D01*
X89138095Y-17554819D02*
X89138095Y-18364342D01*
X89138095Y-18364342D02*
X89185714Y-18459580D01*
X89185714Y-18459580D02*
X89233333Y-18507200D01*
X89233333Y-18507200D02*
X89328571Y-18554819D01*
X89328571Y-18554819D02*
X89519047Y-18554819D01*
X89519047Y-18554819D02*
X89614285Y-18507200D01*
X89614285Y-18507200D02*
X89661904Y-18459580D01*
X89661904Y-18459580D02*
X89709523Y-18364342D01*
X89709523Y-18364342D02*
X89709523Y-17554819D01*
X90138095Y-17650057D02*
X90185714Y-17602438D01*
X90185714Y-17602438D02*
X90280952Y-17554819D01*
X90280952Y-17554819D02*
X90519047Y-17554819D01*
X90519047Y-17554819D02*
X90614285Y-17602438D01*
X90614285Y-17602438D02*
X90661904Y-17650057D01*
X90661904Y-17650057D02*
X90709523Y-17745295D01*
X90709523Y-17745295D02*
X90709523Y-17840533D01*
X90709523Y-17840533D02*
X90661904Y-17983390D01*
X90661904Y-17983390D02*
X90090476Y-18554819D01*
X90090476Y-18554819D02*
X90709523Y-18554819D01*
X57533333Y-12459580D02*
X57485714Y-12507200D01*
X57485714Y-12507200D02*
X57342857Y-12554819D01*
X57342857Y-12554819D02*
X57247619Y-12554819D01*
X57247619Y-12554819D02*
X57104762Y-12507200D01*
X57104762Y-12507200D02*
X57009524Y-12411961D01*
X57009524Y-12411961D02*
X56961905Y-12316723D01*
X56961905Y-12316723D02*
X56914286Y-12126247D01*
X56914286Y-12126247D02*
X56914286Y-11983390D01*
X56914286Y-11983390D02*
X56961905Y-11792914D01*
X56961905Y-11792914D02*
X57009524Y-11697676D01*
X57009524Y-11697676D02*
X57104762Y-11602438D01*
X57104762Y-11602438D02*
X57247619Y-11554819D01*
X57247619Y-11554819D02*
X57342857Y-11554819D01*
X57342857Y-11554819D02*
X57485714Y-11602438D01*
X57485714Y-11602438D02*
X57533333Y-11650057D01*
X58485714Y-12554819D02*
X57914286Y-12554819D01*
X58200000Y-12554819D02*
X58200000Y-11554819D01*
X58200000Y-11554819D02*
X58104762Y-11697676D01*
X58104762Y-11697676D02*
X58009524Y-11792914D01*
X58009524Y-11792914D02*
X57914286Y-11840533D01*
X76057142Y-17734580D02*
X76009523Y-17782200D01*
X76009523Y-17782200D02*
X75866666Y-17829819D01*
X75866666Y-17829819D02*
X75771428Y-17829819D01*
X75771428Y-17829819D02*
X75628571Y-17782200D01*
X75628571Y-17782200D02*
X75533333Y-17686961D01*
X75533333Y-17686961D02*
X75485714Y-17591723D01*
X75485714Y-17591723D02*
X75438095Y-17401247D01*
X75438095Y-17401247D02*
X75438095Y-17258390D01*
X75438095Y-17258390D02*
X75485714Y-17067914D01*
X75485714Y-17067914D02*
X75533333Y-16972676D01*
X75533333Y-16972676D02*
X75628571Y-16877438D01*
X75628571Y-16877438D02*
X75771428Y-16829819D01*
X75771428Y-16829819D02*
X75866666Y-16829819D01*
X75866666Y-16829819D02*
X76009523Y-16877438D01*
X76009523Y-16877438D02*
X76057142Y-16925057D01*
X77009523Y-17829819D02*
X76438095Y-17829819D01*
X76723809Y-17829819D02*
X76723809Y-16829819D01*
X76723809Y-16829819D02*
X76628571Y-16972676D01*
X76628571Y-16972676D02*
X76533333Y-17067914D01*
X76533333Y-17067914D02*
X76438095Y-17115533D01*
X77961904Y-17829819D02*
X77390476Y-17829819D01*
X77676190Y-17829819D02*
X77676190Y-16829819D01*
X77676190Y-16829819D02*
X77580952Y-16972676D01*
X77580952Y-16972676D02*
X77485714Y-17067914D01*
X77485714Y-17067914D02*
X77390476Y-17115533D01*
X81857142Y-26659580D02*
X81809523Y-26707200D01*
X81809523Y-26707200D02*
X81666666Y-26754819D01*
X81666666Y-26754819D02*
X81571428Y-26754819D01*
X81571428Y-26754819D02*
X81428571Y-26707200D01*
X81428571Y-26707200D02*
X81333333Y-26611961D01*
X81333333Y-26611961D02*
X81285714Y-26516723D01*
X81285714Y-26516723D02*
X81238095Y-26326247D01*
X81238095Y-26326247D02*
X81238095Y-26183390D01*
X81238095Y-26183390D02*
X81285714Y-25992914D01*
X81285714Y-25992914D02*
X81333333Y-25897676D01*
X81333333Y-25897676D02*
X81428571Y-25802438D01*
X81428571Y-25802438D02*
X81571428Y-25754819D01*
X81571428Y-25754819D02*
X81666666Y-25754819D01*
X81666666Y-25754819D02*
X81809523Y-25802438D01*
X81809523Y-25802438D02*
X81857142Y-25850057D01*
X82809523Y-26754819D02*
X82238095Y-26754819D01*
X82523809Y-26754819D02*
X82523809Y-25754819D01*
X82523809Y-25754819D02*
X82428571Y-25897676D01*
X82428571Y-25897676D02*
X82333333Y-25992914D01*
X82333333Y-25992914D02*
X82238095Y-26040533D01*
X83428571Y-25754819D02*
X83523809Y-25754819D01*
X83523809Y-25754819D02*
X83619047Y-25802438D01*
X83619047Y-25802438D02*
X83666666Y-25850057D01*
X83666666Y-25850057D02*
X83714285Y-25945295D01*
X83714285Y-25945295D02*
X83761904Y-26135771D01*
X83761904Y-26135771D02*
X83761904Y-26373866D01*
X83761904Y-26373866D02*
X83714285Y-26564342D01*
X83714285Y-26564342D02*
X83666666Y-26659580D01*
X83666666Y-26659580D02*
X83619047Y-26707200D01*
X83619047Y-26707200D02*
X83523809Y-26754819D01*
X83523809Y-26754819D02*
X83428571Y-26754819D01*
X83428571Y-26754819D02*
X83333333Y-26707200D01*
X83333333Y-26707200D02*
X83285714Y-26659580D01*
X83285714Y-26659580D02*
X83238095Y-26564342D01*
X83238095Y-26564342D02*
X83190476Y-26373866D01*
X83190476Y-26373866D02*
X83190476Y-26135771D01*
X83190476Y-26135771D02*
X83238095Y-25945295D01*
X83238095Y-25945295D02*
X83285714Y-25850057D01*
X83285714Y-25850057D02*
X83333333Y-25802438D01*
X83333333Y-25802438D02*
X83428571Y-25754819D01*
X76757142Y-31259580D02*
X76709523Y-31307200D01*
X76709523Y-31307200D02*
X76566666Y-31354819D01*
X76566666Y-31354819D02*
X76471428Y-31354819D01*
X76471428Y-31354819D02*
X76328571Y-31307200D01*
X76328571Y-31307200D02*
X76233333Y-31211961D01*
X76233333Y-31211961D02*
X76185714Y-31116723D01*
X76185714Y-31116723D02*
X76138095Y-30926247D01*
X76138095Y-30926247D02*
X76138095Y-30783390D01*
X76138095Y-30783390D02*
X76185714Y-30592914D01*
X76185714Y-30592914D02*
X76233333Y-30497676D01*
X76233333Y-30497676D02*
X76328571Y-30402438D01*
X76328571Y-30402438D02*
X76471428Y-30354819D01*
X76471428Y-30354819D02*
X76566666Y-30354819D01*
X76566666Y-30354819D02*
X76709523Y-30402438D01*
X76709523Y-30402438D02*
X76757142Y-30450057D01*
X77709523Y-31354819D02*
X77138095Y-31354819D01*
X77423809Y-31354819D02*
X77423809Y-30354819D01*
X77423809Y-30354819D02*
X77328571Y-30497676D01*
X77328571Y-30497676D02*
X77233333Y-30592914D01*
X77233333Y-30592914D02*
X77138095Y-30640533D01*
X78090476Y-30450057D02*
X78138095Y-30402438D01*
X78138095Y-30402438D02*
X78233333Y-30354819D01*
X78233333Y-30354819D02*
X78471428Y-30354819D01*
X78471428Y-30354819D02*
X78566666Y-30402438D01*
X78566666Y-30402438D02*
X78614285Y-30450057D01*
X78614285Y-30450057D02*
X78661904Y-30545295D01*
X78661904Y-30545295D02*
X78661904Y-30640533D01*
X78661904Y-30640533D02*
X78614285Y-30783390D01*
X78614285Y-30783390D02*
X78042857Y-31354819D01*
X78042857Y-31354819D02*
X78661904Y-31354819D01*
X58757142Y-16459580D02*
X58709523Y-16507200D01*
X58709523Y-16507200D02*
X58566666Y-16554819D01*
X58566666Y-16554819D02*
X58471428Y-16554819D01*
X58471428Y-16554819D02*
X58328571Y-16507200D01*
X58328571Y-16507200D02*
X58233333Y-16411961D01*
X58233333Y-16411961D02*
X58185714Y-16316723D01*
X58185714Y-16316723D02*
X58138095Y-16126247D01*
X58138095Y-16126247D02*
X58138095Y-15983390D01*
X58138095Y-15983390D02*
X58185714Y-15792914D01*
X58185714Y-15792914D02*
X58233333Y-15697676D01*
X58233333Y-15697676D02*
X58328571Y-15602438D01*
X58328571Y-15602438D02*
X58471428Y-15554819D01*
X58471428Y-15554819D02*
X58566666Y-15554819D01*
X58566666Y-15554819D02*
X58709523Y-15602438D01*
X58709523Y-15602438D02*
X58757142Y-15650057D01*
X59709523Y-16554819D02*
X59138095Y-16554819D01*
X59423809Y-16554819D02*
X59423809Y-15554819D01*
X59423809Y-15554819D02*
X59328571Y-15697676D01*
X59328571Y-15697676D02*
X59233333Y-15792914D01*
X59233333Y-15792914D02*
X59138095Y-15840533D01*
X60042857Y-15554819D02*
X60661904Y-15554819D01*
X60661904Y-15554819D02*
X60328571Y-15935771D01*
X60328571Y-15935771D02*
X60471428Y-15935771D01*
X60471428Y-15935771D02*
X60566666Y-15983390D01*
X60566666Y-15983390D02*
X60614285Y-16031009D01*
X60614285Y-16031009D02*
X60661904Y-16126247D01*
X60661904Y-16126247D02*
X60661904Y-16364342D01*
X60661904Y-16364342D02*
X60614285Y-16459580D01*
X60614285Y-16459580D02*
X60566666Y-16507200D01*
X60566666Y-16507200D02*
X60471428Y-16554819D01*
X60471428Y-16554819D02*
X60185714Y-16554819D01*
X60185714Y-16554819D02*
X60090476Y-16507200D01*
X60090476Y-16507200D02*
X60042857Y-16459580D01*
X78938333Y-16759580D02*
X78890714Y-16807200D01*
X78890714Y-16807200D02*
X78747857Y-16854819D01*
X78747857Y-16854819D02*
X78652619Y-16854819D01*
X78652619Y-16854819D02*
X78509762Y-16807200D01*
X78509762Y-16807200D02*
X78414524Y-16711961D01*
X78414524Y-16711961D02*
X78366905Y-16616723D01*
X78366905Y-16616723D02*
X78319286Y-16426247D01*
X78319286Y-16426247D02*
X78319286Y-16283390D01*
X78319286Y-16283390D02*
X78366905Y-16092914D01*
X78366905Y-16092914D02*
X78414524Y-15997676D01*
X78414524Y-15997676D02*
X78509762Y-15902438D01*
X78509762Y-15902438D02*
X78652619Y-15854819D01*
X78652619Y-15854819D02*
X78747857Y-15854819D01*
X78747857Y-15854819D02*
X78890714Y-15902438D01*
X78890714Y-15902438D02*
X78938333Y-15950057D01*
X79271667Y-15854819D02*
X79890714Y-15854819D01*
X79890714Y-15854819D02*
X79557381Y-16235771D01*
X79557381Y-16235771D02*
X79700238Y-16235771D01*
X79700238Y-16235771D02*
X79795476Y-16283390D01*
X79795476Y-16283390D02*
X79843095Y-16331009D01*
X79843095Y-16331009D02*
X79890714Y-16426247D01*
X79890714Y-16426247D02*
X79890714Y-16664342D01*
X79890714Y-16664342D02*
X79843095Y-16759580D01*
X79843095Y-16759580D02*
X79795476Y-16807200D01*
X79795476Y-16807200D02*
X79700238Y-16854819D01*
X79700238Y-16854819D02*
X79414524Y-16854819D01*
X79414524Y-16854819D02*
X79319286Y-16807200D01*
X79319286Y-16807200D02*
X79271667Y-16759580D01*
X93233333Y-16654819D02*
X92900000Y-16178628D01*
X92661905Y-16654819D02*
X92661905Y-15654819D01*
X92661905Y-15654819D02*
X93042857Y-15654819D01*
X93042857Y-15654819D02*
X93138095Y-15702438D01*
X93138095Y-15702438D02*
X93185714Y-15750057D01*
X93185714Y-15750057D02*
X93233333Y-15845295D01*
X93233333Y-15845295D02*
X93233333Y-15988152D01*
X93233333Y-15988152D02*
X93185714Y-16083390D01*
X93185714Y-16083390D02*
X93138095Y-16131009D01*
X93138095Y-16131009D02*
X93042857Y-16178628D01*
X93042857Y-16178628D02*
X92661905Y-16178628D01*
X93614286Y-15750057D02*
X93661905Y-15702438D01*
X93661905Y-15702438D02*
X93757143Y-15654819D01*
X93757143Y-15654819D02*
X93995238Y-15654819D01*
X93995238Y-15654819D02*
X94090476Y-15702438D01*
X94090476Y-15702438D02*
X94138095Y-15750057D01*
X94138095Y-15750057D02*
X94185714Y-15845295D01*
X94185714Y-15845295D02*
X94185714Y-15940533D01*
X94185714Y-15940533D02*
X94138095Y-16083390D01*
X94138095Y-16083390D02*
X93566667Y-16654819D01*
X93566667Y-16654819D02*
X94185714Y-16654819D01*
%TO.C,U3*%
D11*
X70390000Y-20790000D02*
X71040000Y-20790000D01*
X70390000Y-21440000D02*
X70390000Y-20790000D01*
X70390000Y-28010000D02*
X70390000Y-27360000D01*
X71040000Y-28010000D02*
X70390000Y-28010000D01*
X76960000Y-20790000D02*
X77610000Y-20790000D01*
X77610000Y-20790000D02*
X77610000Y-21440000D01*
X77610000Y-27360000D02*
X77610000Y-28010000D01*
X77610000Y-28010000D02*
X76960000Y-28010000D01*
X69860000Y-21800000D02*
X69530000Y-22040000D01*
X69530000Y-21560000D01*
X69860000Y-21800000D01*
G36*
X69860000Y-21800000D02*
G01*
X69530000Y-22040000D01*
X69530000Y-21560000D01*
X69860000Y-21800000D01*
G37*
%TO.C,R6*%
X83637258Y-19077500D02*
X83162742Y-19077500D01*
X83637258Y-20122500D02*
X83162742Y-20122500D01*
%TO.C,C16*%
X66159420Y-30090000D02*
X66440580Y-30090000D01*
X66159420Y-31110000D02*
X66440580Y-31110000D01*
%TO.C,R3*%
X100782742Y-25977500D02*
X101257258Y-25977500D01*
X100782742Y-27022500D02*
X101257258Y-27022500D01*
%TO.C,R1*%
X85177500Y-15562742D02*
X85177500Y-16037258D01*
X86222500Y-15562742D02*
X86222500Y-16037258D01*
%TO.C,C6*%
X66740580Y-23190000D02*
X66459420Y-23190000D01*
X66740580Y-24210000D02*
X66459420Y-24210000D01*
%TO.C,J2*%
X48620000Y-7080000D02*
X50000000Y-7080000D01*
X48620000Y-8460000D02*
X48620000Y-7080000D01*
X48620000Y-9730000D02*
X48620000Y-14920000D01*
X48620000Y-9730000D02*
X51380000Y-9730000D01*
X48620000Y-14920000D02*
X51380000Y-14920000D01*
X51380000Y-9730000D02*
X51380000Y-14920000D01*
%TO.C,U1*%
X64150000Y-7590000D02*
X67910000Y-7590000D01*
X64150000Y-14410000D02*
X67910000Y-14410000D01*
X67910000Y-7590000D02*
X67910000Y-8850000D01*
X67910000Y-14410000D02*
X67910000Y-13150000D01*
X62870000Y-7690000D02*
X62630000Y-7360000D01*
X63110000Y-7360000D01*
X62870000Y-7690000D01*
G36*
X62870000Y-7690000D02*
G01*
X62630000Y-7360000D01*
X63110000Y-7360000D01*
X62870000Y-7690000D01*
G37*
%TO.C,D18*%
X119140000Y-24250000D02*
X119140000Y-26250000D01*
X119140000Y-24250000D02*
X123150000Y-24250000D01*
X119140000Y-26250000D02*
X123150000Y-26250000D01*
%TO.C,R4*%
X78177500Y-8237258D02*
X78177500Y-7762742D01*
X79222500Y-8237258D02*
X79222500Y-7762742D01*
%TO.C,C5*%
X78459420Y-19090000D02*
X78740580Y-19090000D01*
X78459420Y-20110000D02*
X78740580Y-20110000D01*
%TO.C,C8*%
X79559420Y-21990000D02*
X79840580Y-21990000D01*
X79559420Y-23010000D02*
X79840580Y-23010000D01*
%TO.C,J3*%
X48620000Y-16620000D02*
X50000000Y-16620000D01*
X48620000Y-18000000D02*
X48620000Y-16620000D01*
X48620000Y-19270000D02*
X48620000Y-27000000D01*
X48620000Y-19270000D02*
X51380000Y-19270000D01*
X48620000Y-27000000D02*
X51380000Y-27000000D01*
X51380000Y-19270000D02*
X51380000Y-27000000D01*
%TO.C,C14*%
X61959420Y-17290000D02*
X62240580Y-17290000D01*
X61959420Y-18310000D02*
X62240580Y-18310000D01*
%TO.C,C2*%
X62038748Y-18965000D02*
X62561252Y-18965000D01*
X62038748Y-20435000D02*
X62561252Y-20435000D01*
%TO.C,SW2*%
X97790000Y-18770000D02*
X104250000Y-18770000D01*
X97790000Y-18800000D02*
X97790000Y-18770000D01*
X97790000Y-20700000D02*
X97790000Y-23300000D01*
X97790000Y-25230000D02*
X97790000Y-25200000D01*
X97790000Y-25230000D02*
X104250000Y-25230000D01*
X104250000Y-18770000D02*
X104250000Y-18800000D01*
X104250000Y-20700000D02*
X104250000Y-23300000D01*
X104250000Y-25230000D02*
X104250000Y-25200000D01*
%TO.C,SW3*%
X115600000Y-13500000D02*
X115600000Y-9400000D01*
X115600000Y-21600000D02*
X115600000Y-17500000D01*
X118000000Y-21600000D02*
X115600000Y-21600000D01*
X121500000Y-15000000D02*
X121500000Y-16000000D01*
X122000000Y-15500000D02*
X121000000Y-15500000D01*
X122800000Y-21600000D02*
X120200000Y-21600000D01*
X125300000Y-8000000D02*
X125600000Y-7700000D01*
X125600000Y-7700000D02*
X125600000Y-8300000D01*
X125600000Y-8300000D02*
X125300000Y-8000000D01*
X127400000Y-9400000D02*
X115600000Y-9400000D01*
X127400000Y-13500000D02*
X127400000Y-9400000D01*
X127400000Y-17500000D02*
X127400000Y-21600000D01*
X127400000Y-21600000D02*
X125000000Y-21600000D01*
X124500000Y-15500000D02*
G75*
G02*
X118500000Y-15500000I-3000000J0D01*
G01*
X118500000Y-15500000D02*
G75*
G02*
X124500000Y-15500000I3000000J0D01*
G01*
%TO.C,SW1*%
X97810000Y-7020000D02*
X104270000Y-7020000D01*
X97810000Y-7050000D02*
X97810000Y-7020000D01*
X97810000Y-8950000D02*
X97810000Y-11550000D01*
X97810000Y-13480000D02*
X97810000Y-13450000D01*
X97810000Y-13480000D02*
X104270000Y-13480000D01*
X104270000Y-7020000D02*
X104270000Y-7050000D01*
X104270000Y-8950000D02*
X104270000Y-11550000D01*
X104270000Y-13480000D02*
X104270000Y-13450000D01*
%TO.C,J1*%
X83800000Y-6650000D02*
X83800000Y-4750000D01*
X83800000Y-10550000D02*
X83800000Y-8550000D01*
X93200000Y-4750000D02*
X83800000Y-4750000D01*
X93200000Y-6650000D02*
X93200000Y-4750000D01*
X93200000Y-10550000D02*
X93200000Y-8550000D01*
%TO.C,C4*%
X69790000Y-18940580D02*
X69790000Y-18659420D01*
X70810000Y-18940580D02*
X70810000Y-18659420D01*
%TO.C,R7*%
X83637258Y-17577500D02*
X83162742Y-17577500D01*
X83637258Y-18622500D02*
X83162742Y-18622500D01*
%TO.C,Y1*%
X68660000Y-26290000D02*
X64540000Y-26290000D01*
X68660000Y-29710000D02*
X68660000Y-26290000D01*
%TO.C,R5*%
X79677500Y-8237258D02*
X79677500Y-7762742D01*
X80722500Y-8237258D02*
X80722500Y-7762742D01*
%TO.C,R8*%
X71287742Y-30577500D02*
X71762258Y-30577500D01*
X71287742Y-31622500D02*
X71762258Y-31622500D01*
%TO.C,C9*%
X79559420Y-23990000D02*
X79840580Y-23990000D01*
X79559420Y-25010000D02*
X79840580Y-25010000D01*
%TO.C,C7*%
X73290000Y-30759420D02*
X73290000Y-31040580D01*
X74310000Y-30759420D02*
X74310000Y-31040580D01*
%TO.C,U4*%
X71945000Y-8652500D02*
X72215000Y-8652500D01*
X71945000Y-14172500D02*
X71945000Y-8652500D01*
X72215000Y-14172500D02*
X71945000Y-14172500D01*
X77195000Y-8652500D02*
X77465000Y-8652500D01*
X77465000Y-8652500D02*
X77465000Y-14172500D01*
X77465000Y-14172500D02*
X77195000Y-14172500D01*
X77205000Y-7822500D02*
X77675000Y-7482500D01*
X77675000Y-8162500D01*
X77205000Y-7822500D01*
G36*
X77675000Y-8162500D02*
G01*
X77205000Y-7822500D01*
X77675000Y-7482500D01*
X77675000Y-8162500D01*
G37*
%TO.C,C15*%
X66740580Y-24790000D02*
X66459420Y-24790000D01*
X66740580Y-25810000D02*
X66459420Y-25810000D01*
%TO.C,U2*%
X87590000Y-14140000D02*
X89410000Y-14140000D01*
X87590000Y-14190000D02*
X87590000Y-14140000D01*
X87590000Y-17260000D02*
X87590000Y-17210000D01*
X89410000Y-14140000D02*
X89410000Y-14190000D01*
X89410000Y-17210000D02*
X89410000Y-17260000D01*
X89410000Y-17260000D02*
X87590000Y-17260000D01*
X87050000Y-14190000D02*
X86810000Y-13860000D01*
X87290000Y-13860000D01*
X87050000Y-14190000D01*
G36*
X87050000Y-14190000D02*
G01*
X86810000Y-13860000D01*
X87290000Y-13860000D01*
X87050000Y-14190000D01*
G37*
%TO.C,C1*%
X58765000Y-12261252D02*
X58765000Y-11738748D01*
X60235000Y-12261252D02*
X60235000Y-11738748D01*
%TO.C,C11*%
X73890000Y-18415580D02*
X73890000Y-18134420D01*
X74910000Y-18415580D02*
X74910000Y-18134420D01*
%TO.C,C10*%
X79559420Y-25690000D02*
X79840580Y-25690000D01*
X79559420Y-26710000D02*
X79840580Y-26710000D01*
%TO.C,C12*%
X74890000Y-30759420D02*
X74890000Y-31040580D01*
X75910000Y-30759420D02*
X75910000Y-31040580D01*
%TO.C,C13*%
X61959420Y-15590000D02*
X62240580Y-15590000D01*
X61959420Y-16610000D02*
X62240580Y-16610000D01*
%TO.C,C3*%
X78964420Y-14502500D02*
X79245580Y-14502500D01*
X78964420Y-15522500D02*
X79245580Y-15522500D01*
%TO.C,R2*%
X91277500Y-15962742D02*
X91277500Y-16437258D01*
X92322500Y-15962742D02*
X92322500Y-16437258D01*
%TD*%
%LPC*%
D12*
%TO.C,U3*%
X70562500Y-21800000D03*
X70562500Y-22200000D03*
X70562500Y-22600000D03*
X70562500Y-23000000D03*
X70562500Y-23400000D03*
X70562500Y-23800000D03*
X70562500Y-24200000D03*
X70562500Y-24600000D03*
X70562500Y-25000000D03*
X70562500Y-25400000D03*
X70562500Y-25800000D03*
X70562500Y-26200000D03*
X70562500Y-26600000D03*
X70562500Y-27000000D03*
D13*
X71400000Y-27837500D03*
X71800000Y-27837500D03*
X72200000Y-27837500D03*
X72600000Y-27837500D03*
X73000000Y-27837500D03*
X73400000Y-27837500D03*
X73800000Y-27837500D03*
X74200000Y-27837500D03*
X74600000Y-27837500D03*
X75000000Y-27837500D03*
X75400000Y-27837500D03*
X75800000Y-27837500D03*
X76200000Y-27837500D03*
X76600000Y-27837500D03*
D12*
X77437500Y-27000000D03*
X77437500Y-26600000D03*
X77437500Y-26200000D03*
X77437500Y-25800000D03*
X77437500Y-25400000D03*
X77437500Y-25000000D03*
X77437500Y-24600000D03*
X77437500Y-24200000D03*
X77437500Y-23800000D03*
X77437500Y-23400000D03*
X77437500Y-23000000D03*
X77437500Y-22600000D03*
X77437500Y-22200000D03*
X77437500Y-21800000D03*
D13*
X76600000Y-20962500D03*
X76200000Y-20962500D03*
X75800000Y-20962500D03*
X75400000Y-20962500D03*
X75000000Y-20962500D03*
X74600000Y-20962500D03*
X74200000Y-20962500D03*
X73800000Y-20962500D03*
X73400000Y-20962500D03*
X73000000Y-20962500D03*
X72600000Y-20962500D03*
X72200000Y-20962500D03*
X71800000Y-20962500D03*
X71400000Y-20962500D03*
D14*
X74000000Y-24400000D03*
%TD*%
D15*
%TO.C,R6*%
X84225000Y-19600000D03*
X82575000Y-19600000D03*
%TD*%
D16*
%TO.C,C16*%
X65525000Y-30600000D03*
X67075000Y-30600000D03*
%TD*%
D17*
%TO.C,R3*%
X100195000Y-26500000D03*
X101845000Y-26500000D03*
%TD*%
D18*
%TO.C,R1*%
X85700000Y-14975000D03*
X85700000Y-16625000D03*
%TD*%
D19*
%TO.C,C6*%
X67375000Y-23700000D03*
X65825000Y-23700000D03*
%TD*%
D20*
%TO.C,J2*%
X50000000Y-8460000D03*
D21*
X50000000Y-11000000D03*
X50000000Y-13540000D03*
%TD*%
D22*
%TO.C,U1*%
X62850000Y-8700000D03*
X62850000Y-11000000D03*
D23*
X69150000Y-11000000D03*
D22*
X62850000Y-13300000D03*
%TD*%
D24*
%TO.C,D18*%
X119850000Y-25250000D03*
X123150000Y-25250000D03*
%TD*%
D25*
%TO.C,R4*%
X78700000Y-8825000D03*
X78700000Y-7175000D03*
%TD*%
D16*
%TO.C,C5*%
X77825000Y-19600000D03*
X79375000Y-19600000D03*
%TD*%
%TO.C,C8*%
X78925000Y-22500000D03*
X80475000Y-22500000D03*
%TD*%
D20*
%TO.C,J3*%
X50000000Y-18000000D03*
D21*
X50000000Y-20540000D03*
X50000000Y-23080000D03*
X50000000Y-25620000D03*
%TD*%
D16*
%TO.C,C14*%
X61325000Y-17800000D03*
X62875000Y-17800000D03*
%TD*%
D26*
%TO.C,C2*%
X61350000Y-19700000D03*
X63250000Y-19700000D03*
%TD*%
D27*
%TO.C,SW2*%
X97040000Y-19750000D03*
X105000000Y-19750000D03*
X97040000Y-24250000D03*
X105000000Y-24250000D03*
%TD*%
D28*
%TO.C,SW3*%
X124000000Y-8000000D03*
D29*
X119000000Y-8000000D03*
X121500000Y-8000000D03*
D30*
X127100000Y-15500000D03*
X115900000Y-15500000D03*
D29*
X119000000Y-22500000D03*
X124000000Y-22500000D03*
%TD*%
D27*
%TO.C,SW1*%
X97060000Y-8000000D03*
X105020000Y-8000000D03*
X97060000Y-12500000D03*
X105020000Y-12500000D03*
%TD*%
D31*
%TO.C,J1*%
X91390000Y-11250000D03*
X85610000Y-11250000D03*
D32*
X91750000Y-12695000D03*
X90950000Y-12695000D03*
D33*
X89750000Y-12695000D03*
X88750000Y-12695000D03*
X88250000Y-12695000D03*
X87250000Y-12695000D03*
D32*
X86050000Y-12695000D03*
X85250000Y-12695000D03*
X85250000Y-12695000D03*
X86050000Y-12695000D03*
D33*
X86750000Y-12695000D03*
X87750000Y-12695000D03*
X89250000Y-12695000D03*
X90250000Y-12695000D03*
D32*
X90950000Y-12695000D03*
X91750000Y-12695000D03*
D34*
X92820000Y-11780000D03*
D35*
X92820000Y-7600000D03*
D34*
X84180000Y-11780000D03*
D35*
X84180000Y-7600000D03*
%TD*%
D36*
%TO.C,C4*%
X70300000Y-19575000D03*
X70300000Y-18025000D03*
%TD*%
D15*
%TO.C,R7*%
X84225000Y-18100000D03*
X82575000Y-18100000D03*
%TD*%
D37*
%TO.C,Y1*%
X67700000Y-27150000D03*
X65500000Y-27150000D03*
X65500000Y-28850000D03*
X67700000Y-28850000D03*
%TD*%
D38*
%TO.C,REF\u002A\u002A*%
X50000000Y-129000000D03*
%TD*%
D25*
%TO.C,R5*%
X80200000Y-8825000D03*
X80200000Y-7175000D03*
%TD*%
D17*
%TO.C,R8*%
X70700000Y-31100000D03*
X72350000Y-31100000D03*
%TD*%
D16*
%TO.C,C9*%
X78925000Y-24500000D03*
X80475000Y-24500000D03*
%TD*%
D39*
%TO.C,C7*%
X73800000Y-30125000D03*
X73800000Y-31675000D03*
%TD*%
D40*
%TO.C,U4*%
X76610000Y-7825000D03*
X75340000Y-7825000D03*
X74070000Y-7825000D03*
X72800000Y-7825000D03*
X72800000Y-15000000D03*
X74070000Y-15000000D03*
X75340000Y-15000000D03*
X76610000Y-15000000D03*
%TD*%
D19*
%TO.C,C15*%
X67375000Y-25300000D03*
X65825000Y-25300000D03*
%TD*%
D41*
%TO.C,U2*%
X87362500Y-14750000D03*
X87362500Y-15700000D03*
X87362500Y-16650000D03*
X89637500Y-16650000D03*
X89637500Y-15700000D03*
X89637500Y-14750000D03*
%TD*%
D38*
%TO.C,REF\u002A\u002A*%
X55750000Y-8750000D03*
%TD*%
D42*
%TO.C,C1*%
X59500000Y-12950000D03*
X59500000Y-11050000D03*
%TD*%
D36*
%TO.C,C11*%
X74400000Y-19050000D03*
X74400000Y-17500000D03*
%TD*%
D16*
%TO.C,C10*%
X78925000Y-26200000D03*
X80475000Y-26200000D03*
%TD*%
D39*
%TO.C,C12*%
X75400000Y-30125000D03*
X75400000Y-31675000D03*
%TD*%
D16*
%TO.C,C13*%
X61325000Y-16100000D03*
X62875000Y-16100000D03*
%TD*%
D38*
%TO.C,REF\u002A\u002A*%
X114100000Y-26700000D03*
%TD*%
D16*
%TO.C,C3*%
X78330000Y-15012500D03*
X79880000Y-15012500D03*
%TD*%
D18*
%TO.C,R2*%
X91800000Y-15375000D03*
X91800000Y-17025000D03*
%TD*%
D38*
%TO.C,REF\u002A\u002A*%
X127000000Y-129000000D03*
%TD*%
D43*
%TO.C,MX1*%
X65080000Y-40000000D03*
D44*
X60000000Y-40000000D03*
D43*
X54920000Y-40000000D03*
D45*
X56190000Y-37460000D03*
X62540000Y-34920000D03*
%TD*%
D43*
%TO.C,MX5*%
X65080000Y-59050000D03*
D44*
X60000000Y-59050000D03*
D43*
X54920000Y-59050000D03*
D45*
X56190000Y-56510000D03*
X62540000Y-53970000D03*
%TD*%
D43*
%TO.C,MX10*%
X84130000Y-78100000D03*
D44*
X79050000Y-78100000D03*
D43*
X73970000Y-78100000D03*
D45*
X75240000Y-75560000D03*
X81590000Y-73020000D03*
%TD*%
D43*
%TO.C,MX14*%
X103180000Y-97150000D03*
D44*
X98100000Y-97150000D03*
D43*
X93020000Y-97150000D03*
D45*
X94290000Y-94610000D03*
X100640000Y-92070000D03*
%TD*%
D43*
%TO.C,MX12*%
X65080000Y-97150000D03*
D44*
X60000000Y-97150000D03*
D43*
X54920000Y-97150000D03*
D45*
X56190000Y-94610000D03*
X62540000Y-92070000D03*
%TD*%
D43*
%TO.C,MX9*%
X65080000Y-78100000D03*
D44*
X60000000Y-78100000D03*
D43*
X54920000Y-78100000D03*
D45*
X56190000Y-75560000D03*
X62540000Y-73020000D03*
%TD*%
D43*
%TO.C,MX3*%
X103180000Y-40000000D03*
D44*
X98100000Y-40000000D03*
D43*
X93020000Y-40000000D03*
D45*
X94290000Y-37460000D03*
X100640000Y-34920000D03*
%TD*%
D43*
%TO.C,MX17*%
X122230000Y-106675000D03*
D44*
X117150000Y-106675000D03*
D43*
X112070000Y-106675000D03*
D45*
X113340000Y-104135000D03*
X119690000Y-101595000D03*
%TD*%
D43*
%TO.C,MX15*%
X74605000Y-116200000D03*
D44*
X69525000Y-116200000D03*
D43*
X64445000Y-116200000D03*
D45*
X65715000Y-113660000D03*
X72065000Y-111120000D03*
%TD*%
D43*
%TO.C,MX2*%
X84130000Y-40000000D03*
D44*
X79050000Y-40000000D03*
D43*
X73970000Y-40000000D03*
D45*
X75240000Y-37460000D03*
X81590000Y-34920000D03*
%TD*%
D43*
%TO.C,MX8*%
X122230000Y-68575000D03*
D44*
X117150000Y-68575000D03*
D43*
X112070000Y-68575000D03*
D45*
X113340000Y-66035000D03*
X119690000Y-63495000D03*
%TD*%
D43*
%TO.C,MX13*%
X84130000Y-97150000D03*
D44*
X79050000Y-97150000D03*
D43*
X73970000Y-97150000D03*
D45*
X75240000Y-94610000D03*
X81590000Y-92070000D03*
%TD*%
D44*
%TO.C,REF\u002A\u002A*%
X108895000Y-80481250D03*
D46*
X124135000Y-80481250D03*
D44*
X108895000Y-56668750D03*
D46*
X124135000Y-56668750D03*
%TD*%
D44*
%TO.C,REF\u002A\u002A*%
X108895000Y-118581250D03*
D46*
X124135000Y-118581250D03*
D44*
X108895000Y-94768750D03*
D46*
X124135000Y-94768750D03*
%TD*%
D43*
%TO.C,MX11*%
X103180000Y-78100000D03*
D44*
X98100000Y-78100000D03*
D43*
X93020000Y-78100000D03*
D45*
X94290000Y-75560000D03*
X100640000Y-73020000D03*
%TD*%
D43*
%TO.C,MX16*%
X103180000Y-116200000D03*
D44*
X98100000Y-116200000D03*
D43*
X93020000Y-116200000D03*
D45*
X94290000Y-113660000D03*
X100640000Y-111120000D03*
%TD*%
D43*
%TO.C,MX7*%
X103180000Y-59050000D03*
D44*
X98100000Y-59050000D03*
D43*
X93020000Y-59050000D03*
D45*
X94290000Y-56510000D03*
X100640000Y-53970000D03*
%TD*%
D43*
%TO.C,MX6*%
X84130000Y-59050000D03*
D44*
X79050000Y-59050000D03*
D43*
X73970000Y-59050000D03*
D45*
X75240000Y-56510000D03*
X81590000Y-53970000D03*
%TD*%
D44*
%TO.C,REF\u002A\u002A*%
X81431250Y-124455000D03*
D46*
X81431250Y-109215000D03*
D44*
X57618750Y-124455000D03*
D46*
X57618750Y-109215000D03*
%TD*%
D43*
%TO.C,MX4*%
X122230000Y-40000000D03*
D44*
X117150000Y-40000000D03*
D43*
X112070000Y-40000000D03*
D45*
X113340000Y-37460000D03*
X119690000Y-34920000D03*
%TD*%
%LPD*%
M02*
